<?xml version="1.0" standalone="no"?>
<!DOCTYPE svg PUBLIC "-//W3C//DTD SVG 1.1//EN" "http://www.w3.org/Graphics/SVG/1.1/DTD/svg11.dtd" >
<svg xmlns="http://www.w3.org/2000/svg">
<metadata></metadata>
<defs>
<font id="graublau_sans_boldregular" horiz-adv-x="1107" >
<font-face units-per-em="2048" ascent="1638" descent="-410" />
<missing-glyph horiz-adv-x="552" />
<glyph unicode="&#xfb01;" horiz-adv-x="1218" d="M35 723v211h135v88q0 181 105 287t323 106q195 0 397 -90l-80 -197q-172 74 -288 74q-92 0 -130 -45t-38 -135v-88h618v-934h-291v723h-327v-723h-289v723h-135z" />
<glyph unicode="&#xfb02;" horiz-adv-x="1234" d="M37 723v211h133v67q0 408 412 408q144 0 265 -35t243 -94v-1280h-289v1169q-89 27 -189 27q-91 0 -122 -46t-31 -151v-65h211v-211h-211v-723h-289v723h-133z" />
<glyph horiz-adv-x="2048" />
<glyph horiz-adv-x="2048" />
<glyph unicode="&#xd;" horiz-adv-x="2048" />
<glyph unicode=" "  horiz-adv-x="552" />
<glyph unicode="&#x09;" horiz-adv-x="552" />
<glyph unicode="&#xa0;" horiz-adv-x="552" />
<glyph unicode="!" horiz-adv-x="624" d="M203 145q0 68 50.5 117t123.5 49t122.5 -49t49.5 -117q0 -69 -51 -119.5t-121 -50.5q-72 0 -123 50.5t-51 119.5zM217 1268h311l-18 -836h-272z" />
<glyph unicode="&#x22;" horiz-adv-x="835" d="M63 1264v204h293v-202l-34 -322h-224zM479 1264v204h293v-202l-37 -322h-221z" />
<glyph unicode="#" horiz-adv-x="1255" d="M66 213v236h188v217h-188v233h192v379h270v-379h203v379h275v-379h182v-231h-182v-219h182v-236h-180v-381h-275v381h-205v-381h-270v381h-192zM528 449h203v219h-203v-219z" />
<glyph unicode="$" horiz-adv-x="1021" d="M39 68l76 258q128 -59 213 -86t153 -27q75 0 120.5 30.5t45.5 90.5q0 47 -31 84t-80.5 63.5t-109.5 52.5t-120.5 59.5t-110 76.5t-80.5 112t-31 158q0 87 29.5 152.5t83.5 106t121.5 63t150.5 28.5l16 183h211l-18 -193q100 -12 215 -47l-62 -242q-175 66 -299 66 q-74 0 -116.5 -25.5t-42.5 -77.5q0 -42 31.5 -75t82 -58t112 -50.5t122.5 -61t111.5 -80.5t82 -117t31.5 -164t-31.5 -162t-88 -112t-123.5 -64.5t-148 -29.5l-20 -224h-211l22 228q-169 23 -307 84z" />
<glyph unicode="%" horiz-adv-x="1542" d="M133 975q0 30 7.5 62.5t29.5 72t56 70.5t93.5 52t135.5 21t135.5 -19.5t95 -49t58.5 -68t31.5 -73t8.5 -68.5q0 -32 -10 -67t-35 -74t-61.5 -69.5t-94.5 -50.5t-128 -20q-73 0 -131.5 21t-93 52t-57.5 70.5t-31.5 73.5t-8.5 64zM180 47l975 1149l180 -164l-979 -1147z M395 975q0 -28 15.5 -49t44.5 -21q33 0 49 21t16 49t-18 48.5t-47 20.5t-44.5 -21.5t-15.5 -47.5zM791 162q0 30 7.5 63t29.5 73t56 71t93 52t135 21t135.5 -19.5t95 -49.5t59 -69t32 -73.5t8.5 -68.5q0 -31 -10.5 -66t-35.5 -73.5t-61.5 -69t-94.5 -50.5t-128 -20 q-72 0 -130.5 20.5t-93 51.5t-57.5 70t-31.5 73t-8.5 64zM1053 162q0 -26 15.5 -47t43.5 -21q33 0 49.5 20.5t16.5 47.5q0 29 -18 49t-48 20t-44.5 -21t-14.5 -48z" />
<glyph unicode="&#x26;" horiz-adv-x="1308" d="M117 281q0 117 59 204t164 162q-77 68 -113.5 135t-36.5 156q0 151 115 241.5t318 90.5q192 0 311 -80t119 -209q0 -55 -22.5 -104.5t-67.5 -93t-87.5 -75t-107.5 -71.5q332 -266 545 -477l-158 -189q-87 87 -182 172q-103 -88 -204 -133t-247 -45q-197 0 -301 85.5 t-104 230.5zM420 309q0 -58 36 -89.5t101 -31.5q61 0 114.5 27.5t119.5 83.5q-110 91 -252 193q-119 -90 -119 -183zM494 940q0 -63 90 -147q80 46 120.5 83.5t40.5 79.5q0 46 -44.5 69.5t-92.5 23.5q-55 0 -84.5 -31t-29.5 -78z" />
<glyph unicode="'" horiz-adv-x="421" d="M63 1264v204h293v-202l-34 -322h-224z" />
<glyph unicode="(" horiz-adv-x="677" d="M117 594q0 123 23 239.5t56 205t88 183t100 157.5t110 145l196 -115q-43 -60 -83.5 -128.5t-92.5 -177t-83.5 -240.5t-31.5 -263q0 -116 21.5 -230.5t52.5 -201t74 -170.5t76 -134.5t69 -96.5l-205 -117q-52 56 -97.5 116t-97.5 151.5t-89 188t-61.5 225t-24.5 263.5z " />
<glyph unicode=")" horiz-adv-x="671" d="M-14 -236q65 99 108.5 176.5t89 182.5t68 221t22.5 242q0 89 -9 167.5t-29.5 150t-39 124.5t-55 120t-60 106.5t-69.5 112.5q-17 28 -26 42l209 115q67 -84 110 -144t95.5 -152.5t82.5 -179t51 -205t21 -249.5q0 -122 -22 -238.5t-54.5 -207.5t-85 -186.5t-98.5 -163 t-109 -150.5z" />
<glyph unicode="*" d="M102 506l88 278l281 -137l-57 307h291l-46 -309l275 152l90 -277l-307 -55l229 -213l-235 -172l-148 274l-131 -280l-237 170l217 223z" />
<glyph unicode="+" d="M111 367v233h311v313h262v-313h309v-233h-309v-338h-262v338h-311z" />
<glyph unicode="," horiz-adv-x="585" d="M90 -201q68 74 93.5 111t25.5 78q0 22 -12 42.5t-26 35t-26 41.5t-12 61q0 67 46.5 109t117.5 42q92 0 145.5 -68t53.5 -173q0 -113 -64 -217.5t-184 -212.5z" />
<glyph unicode="-" horiz-adv-x="817" d="M96 430v234h625v-234h-625z" />
<glyph unicode="." horiz-adv-x="585" d="M133 145q0 68 50.5 117t123.5 49t122.5 -49t49.5 -117q0 -69 -51 -119.5t-121 -50.5q-72 0 -123 50.5t-51 119.5z" />
<glyph unicode="/" horiz-adv-x="843" d="M45 -129l539 1554l266 -86l-539 -1556z" />
<glyph unicode="0" horiz-adv-x="1183" d="M86 459q0 67 15.5 132.5t54 133t96 118.5t149.5 83t207 32q113 0 201 -31.5t141 -80t87 -113.5t46.5 -125.5t12.5 -122.5q0 -68 -15 -135t-53 -136t-95 -121t-148 -85t-205 -33t-204 33t-143 83.5t-87.5 117.5t-47 128t-12.5 122zM381 475q0 -33 5 -66t20 -70t37.5 -65 t61.5 -46.5t89 -18.5q57 0 99.5 23.5t65.5 61.5t33.5 79t10.5 84q0 45 -11 88.5t-34 85.5t-67.5 68t-104.5 26q-56 0 -98 -24t-64 -62.5t-32.5 -79.5t-10.5 -84z" />
<glyph unicode="1" horiz-adv-x="778" d="M20 700l386 250h223v-950h-289v596l-225 -102z" />
<glyph unicode="2" horiz-adv-x="958" d="M66 0v174q80 49 154 101.5t149.5 116t120.5 127t45 114.5q0 98 -140 98q-43 0 -110.5 -17.5t-134.5 -49.5l-72 213q167 81 344 81q88 0 158.5 -18.5t115 -48.5t74 -70.5t41.5 -82.5t12 -87q0 -62 -27 -123.5t-77 -117t-93.5 -93.5t-103.5 -84h344v-233h-800z" />
<glyph unicode="3" horiz-adv-x="942" d="M55 905q134 53 328 53q123 0 215.5 -32t148.5 -103.5t56 -175.5q0 -77 -41.5 -137.5t-130.5 -112.5q111 -29 168 -111.5t57 -189.5q0 -152 -88.5 -259t-234 -157.5t-334.5 -50.5q-57 0 -125 11v237q57 -6 123 -6q151 0 251.5 57t100.5 156q0 157 -289 149l-88 -4l-10 199 l84 6q110 9 181 57t71 115q0 57 -44.5 88t-117.5 31q-111 0 -219 -43z" />
<glyph unicode="4" horiz-adv-x="991" d="M20 184l328 750h273l-293 -701h225l33 293h237v-293h135v-233h-135v-354h-270v354h-469z" />
<glyph unicode="5" horiz-adv-x="927" d="M96 -123q31 -6 97 -6q164 0 265 66.5t101 183.5q0 74 -63.5 123t-176.5 49q-78 0 -202 -23l47 664h641v-225h-406l-10 -211q10 0 25 1t20 1q85 0 160.5 -22.5t137 -67t97 -118t35.5 -167.5q0 -159 -84.5 -272.5t-229.5 -168.5t-337 -55q-74 0 -117 6v242z" />
<glyph unicode="6" horiz-adv-x="1177" d="M109 502q0 137 24 252t79 215t139.5 169t211.5 108.5t289 39.5q69 0 123 -4v-244q-66 9 -98 9q-197 0 -303 -62.5t-144 -222.5q103 39 215 39q190 0 307 -109.5t117 -283.5q0 -132 -65.5 -231.5t-175 -150.5t-246.5 -51q-100 0 -181 28t-134.5 76.5t-89.5 116t-52 143.5 t-16 163zM403 494q0 -281 189 -281q82 0 126 52.5t44 137.5q0 84 -44.5 131.5t-137.5 47.5q-82 0 -177 -43v-45z" />
<glyph unicode="7" horiz-adv-x="845" d="M8 700v234h785l26 -162l-450 -1106h-308l431 1034h-484z" />
<glyph unicode="8" horiz-adv-x="1112" d="M102 317q0 202 203 340q-174 117 -174 289q0 109 59.5 189.5t153.5 118.5t209 38q111 0 206 -35.5t157.5 -110t62.5 -173.5q0 -91 -48 -170t-120 -137q199 -111 199 -320q0 -75 -24 -137t-65.5 -105t-99.5 -72.5t-125 -43t-143 -13.5q-127 0 -227 37.5t-162 116 t-62 188.5zM393 350q0 -66 44 -105.5t118 -39.5q72 0 118 36.5t46 96.5q0 65 -52 111t-153 96q-52 -35 -86.5 -85t-34.5 -110zM422 954q0 -62 42.5 -103.5t121.5 -78.5q102 98 102 172q0 55 -42 93t-101 38q-56 0 -89.5 -33t-33.5 -88z" />
<glyph unicode="9" horiz-adv-x="1177" d="M100 535q0 131 67 229t178.5 147.5t250.5 49.5q97 0 176.5 -27t132.5 -72.5t89.5 -108.5t52.5 -133t16 -147q0 -149 -23 -270.5t-77 -227t-138 -177t-211.5 -112t-291.5 -40.5q-42 0 -123 6v242q67 -7 100 -7q180 0 289.5 67t148.5 216q-113 -37 -182 -37 q-210 0 -332.5 109t-122.5 293zM408 551q0 -49 16 -92.5t57.5 -76t102.5 -32.5q83 0 182 43v74q0 50 -8.5 92t-28 80.5t-57.5 61t-92 22.5q-78 0 -125 -48.5t-47 -123.5z" />
<glyph unicode=":" horiz-adv-x="608" d="M143 145q0 68 50.5 117t123.5 49t122.5 -49t49.5 -117q0 -69 -51 -119.5t-121 -50.5q-72 0 -123 50.5t-51 119.5zM143 791q0 68 50.5 116.5t123.5 48.5t122.5 -48.5t49.5 -116.5q0 -69 -51 -119.5t-121 -50.5q-72 0 -123 50.5t-51 119.5z" />
<glyph unicode=";" horiz-adv-x="608" d="M102 -201q68 74 93.5 111t25.5 78q0 22 -12 42.5t-26 35t-26 41.5t-12 61q0 67 46.5 109t117.5 42q92 0 145.5 -68t53.5 -173q0 -113 -64 -217.5t-184 -212.5zM141 791q0 68 50.5 116.5t123.5 48.5t122.5 -48.5t49.5 -116.5q0 -69 -51 -119.5t-121 -50.5q-72 0 -123 50.5 t-51 119.5z" />
<glyph unicode="&#x3c;" horiz-adv-x="921" d="M43 489l659 545l160 -168l-459 -377l451 -370l-143 -180z" />
<glyph unicode="=" d="M111 178v232h882v-232h-882zM111 565v232h882v-232h-882z" />
<glyph unicode="&#x3e;" d="M143 866l162 168l658 -545l-664 -550l-147 180l452 370z" />
<glyph unicode="?" horiz-adv-x="907" d="M115 1184q184 102 368 102q80 0 143 -15t103.5 -40.5t67.5 -61t38 -75t11 -84.5q0 -67 -26.5 -125t-64.5 -100t-76 -82.5t-64.5 -92.5t-26.5 -110v-86h-289v104q0 75 26 138t63 103.5t74 74.5t63 69.5t26 71.5q0 82 -98 82q-121 0 -275 -90zM281 145q0 68 50.5 117 t123.5 49t122.5 -49t49.5 -117q0 -69 -51 -119.5t-121 -50.5q-72 0 -123 50.5t-51 119.5z" />
<glyph unicode="@" horiz-adv-x="1826" d="M61 387q0 215 68 386.5t187.5 281.5t279 167.5t346.5 57.5q137 0 261 -28t230 -87t183.5 -144t121.5 -205.5t44 -264.5q0 -73 -13.5 -147t-47 -152t-84.5 -137t-133 -97t-185 -38q-58 0 -96 7t-62 25t-35 33.5t-28 46.5q-47 -50 -115.5 -83.5t-134.5 -33.5q-76 0 -136 24 t-98 62.5t-63 91t-35 106t-10 110.5q0 102 36.5 197t98.5 165.5t150 113t186 42.5q155 0 323 -109v-426q0 -162 52 -162q78 0 121 103t43 258q0 240 -158.5 376t-415.5 136q-129 0 -238.5 -39.5t-195 -118.5t-134 -208t-48.5 -296q0 -176 71.5 -310.5t212 -212t332.5 -77.5 q77 0 183 16t194 44l65 -209q-105 -32 -229 -51t-217 -19q-203 0 -369 60t-277 166.5t-171 255t-60 323.5zM782 383q0 -76 33 -132t88 -56q80 0 133 94v381q-20 10 -51 10q-87 0 -145 -88t-58 -209z" />
<glyph unicode="A" horiz-adv-x="1232" d="M-25 0l490 1268h285l507 -1268h-319l-125 317h-420l-123 -317h-295zM471 547h262l-133 428z" />
<glyph unicode="B" horiz-adv-x="1183" d="M166 0v1268h379q504 0 504 -336q0 -83 -41.5 -144t-110.5 -92q100 -35 161.5 -117.5t61.5 -197.5q0 -90 -28 -157.5t-76 -109.5t-121 -68t-153.5 -36t-182.5 -10h-393zM455 229h137q221 0 221 164q0 45 -21.5 77.5t-58.5 49.5t-79 25t-91 8h-108v-324zM455 764h80 q208 0 208 147q0 127 -204 127h-84v-274z" />
<glyph unicode="C" horiz-adv-x="1060" d="M74 655q0 93 22 182.5t70 172.5t117.5 145t172.5 99.5t226 37.5q82 0 143.5 -8.5t94.5 -18.5t124 -40l-55 -240q-101 40 -165 55t-150 15q-79 0 -137 -31.5t-91.5 -88t-49 -124.5t-15.5 -149q0 -89 16 -164.5t50.5 -140.5t97 -102.5t147.5 -37.5q128 0 293 72l70 -236 q-171 -76 -387 -76q-99 0 -182 21t-143.5 57.5t-107.5 88.5t-77 110t-49 127t-27 135.5t-8 138.5z" />
<glyph unicode="D" horiz-adv-x="1353" d="M166 0v1268h448q149 0 265.5 -36t189.5 -94.5t120 -141.5t66 -169t19 -184q0 -106 -21.5 -198.5t-72 -175.5t-127 -141.5t-193 -93t-264.5 -34.5h-430zM455 233h174q174 0 259 104.5t85 293.5q0 93 -18 162.5t-60.5 125.5t-120.5 85.5t-190 29.5h-129v-801z" />
<glyph unicode="E" horiz-adv-x="1112" d="M166 0v1268h840v-234h-551v-266h497v-233h-497v-302h583v-233h-872z" />
<glyph unicode="F" horiz-adv-x="966" d="M166 0v1268h807v-234h-518v-338h469v-233h-469v-463h-289z" />
<glyph unicode="G" horiz-adv-x="1327" d="M78 610q0 102 24.5 198t78 184.5t131.5 154.5t193 105.5t253 39.5q207 0 440 -94l-86 -229q-198 88 -354 88q-81 0 -146 -25t-107 -66t-69.5 -97t-39 -115.5t-11.5 -124.5q0 -86 21 -159.5t63 -131.5t110.5 -91.5t157.5 -33.5q92 0 193 35v354h278v-491 q-133 -69 -246 -102.5t-247 -33.5q-159 0 -283.5 51.5t-200 140.5t-114.5 201.5t-39 241.5z" />
<glyph unicode="H" horiz-adv-x="1419" d="M166 0v1268h293v-494h504v494h290v-1268h-290v541h-504v-541h-293z" />
<glyph unicode="I" horiz-adv-x="608" d="M162 0v1268h287v-1268h-287z" />
<glyph unicode="J" horiz-adv-x="755" d="M-18 188q74 16 118.5 29.5t90.5 38t70 57t39 84.5t15 123v748h289v-752q0 -97 -16 -174t-40.5 -131.5t-70.5 -96.5t-86.5 -67.5t-110.5 -47t-121.5 -32.5t-138.5 -26z" />
<glyph unicode="K" horiz-adv-x="1277" d="M166 0v1268h289v-477l422 477h376l-514 -535l582 -733h-399l-369 549l-98 -103v-446h-289z" />
<glyph unicode="L" horiz-adv-x="1038" d="M166 0v1268h289v-1024h555v-244h-844z" />
<glyph unicode="M" horiz-adv-x="1681" d="M106 0l101 1268h260l373 -785l370 785h258l107 -1268h-295l-49 729l-342 -729h-117l-344 727l-53 -727h-269z" />
<glyph unicode="N" horiz-adv-x="1458" d="M166 0v1268h213l635 -762v762h278v-1268h-215l-633 776v-776h-278z" />
<glyph unicode="O" horiz-adv-x="1404" d="M82 616q0 94 19 184t66 181t116.5 158.5t180.5 110t249 42.5q133 0 240 -38.5t174.5 -101t113 -147.5t64 -172t18.5 -180q0 -68 -8.5 -132.5t-30 -133t-53.5 -128t-83 -112.5t-114.5 -90.5t-151.5 -59.5t-192 -22q-102 0 -188 21.5t-147.5 57.5t-110 87t-78.5 107 t-49.5 120.5t-27 124.5t-7.5 123zM383 627q0 -88 16 -160t51 -132t97.5 -93t148.5 -33q85 0 150 35t103 96.5t56.5 137t18.5 163.5q0 67 -8.5 124.5t-30.5 113t-57 94.5t-91.5 62.5t-129.5 23.5q-74 0 -131.5 -25t-93.5 -66t-58.5 -98.5t-31.5 -116.5t-9 -126z" />
<glyph unicode="P" horiz-adv-x="1132" d="M166 0v1268h399q242 0 378 -115t136 -301q0 -177 -128 -287t-355 -110q-85 0 -141 10v-465h-289zM455 694q47 -8 98 -8q119 0 170 43.5t51 124.5q0 180 -242 180h-77v-340z" />
<glyph unicode="Q" horiz-adv-x="1404" d="M82 616q0 94 19 184t66 181t116.5 158.5t180.5 110t249 42.5q133 0 240 -38.5t174.5 -101t113 -147.5t64 -172t18.5 -180q0 -69 -9.5 -136t-32 -137t-56.5 -130t-87.5 -113.5t-121.5 -89.5q98 -27 296.5 -85.5t295.5 -85t236.5 -51t250.5 -24.5q85 0 264 15l-26 -217 q-187 -13 -267 -13q-106 0 -227 17.5t-225 42t-249 69.5t-244.5 80t-269 95t-269.5 94q-116 14 -205.5 60.5t-144 109t-89.5 144t-48 158.5t-13 160zM383 627q0 -88 16 -160t51 -132t97.5 -93t148.5 -33q85 0 150 35t103 96.5t56.5 137t18.5 163.5q0 67 -8.5 124.5 t-30.5 113t-57 94.5t-91.5 62.5t-129.5 23.5q-74 0 -131.5 -25t-93.5 -66t-58.5 -98.5t-31.5 -116.5t-9 -126z" />
<glyph unicode="R" horiz-adv-x="1206" d="M166 0v1268h391q265 0 402 -99.5t137 -281.5q0 -253 -238 -361l313 -526h-350l-241 463q-82 -4 -125 -4v-459h-289zM455 690q160 0 246.5 43.5t86.5 145.5q0 74 -58 114.5t-171 40.5h-104v-344z" />
<glyph unicode="S" horiz-adv-x="993" d="M35 68l76 258q128 -59 213 -86t153 -27q75 0 120.5 30.5t45.5 90.5q0 47 -31 84t-80.5 63.5t-109.5 52.5t-120.5 59.5t-110 76.5t-80.5 112t-31 158q0 94 35.5 164t98.5 110t140.5 59t171.5 19q169 0 363 -59l-62 -242q-175 66 -299 66q-74 0 -116.5 -25.5t-42.5 -77.5 q0 -42 31.5 -75t82 -58t112 -50.5t122.5 -61t111.5 -80.5t82 -117t31.5 -164q0 -84 -27 -149.5t-71.5 -107t-106 -68.5t-126.5 -37.5t-138 -10.5q-220 0 -438 93z" />
<glyph unicode="T" horiz-adv-x="1011" d="M-43 1034v234h1098v-234h-406v-1034h-289v1034h-403z" />
<glyph unicode="U" horiz-adv-x="1368" d="M156 459v809h288v-750q0 -293 246 -293q58 0 101.5 17.5t68.5 45t40.5 68t20.5 79t5 85.5v748h288v-803q0 -75 -19 -144.5t-61.5 -133t-104.5 -110.5t-155.5 -74.5t-207.5 -27.5q-112 0 -201 28t-146 74t-94.5 110t-53 131t-15.5 141z" />
<glyph unicode="V" horiz-adv-x="1202" d="M-35 1268h318l329 -817l322 817h305l-545 -1268h-186z" />
<glyph unicode="W" horiz-adv-x="1685" d="M6 1268h301l166 -787l283 787h192l295 -787l160 787h278l-305 -1268h-207l-329 791l-326 -791h-207z" />
<glyph unicode="X" horiz-adv-x="1200" d="M-35 0l424 678l-389 590h371l250 -375l223 375h336l-383 -604l440 -664h-369l-290 444l-277 -444h-336z" />
<glyph unicode="Y" horiz-adv-x="1048" d="M-70 1268h322l283 -574l284 574h299l-446 -846v-422h-289v408z" />
<glyph unicode="Z" horiz-adv-x="1056" d="M12 195l627 839h-588v234h928l45 -178l-633 -854h637v-236h-975z" />
<glyph unicode="[" horiz-adv-x="665" d="M113 -256v1780h508v-213h-265v-1352h265v-215h-508z" />
<glyph unicode="\" horiz-adv-x="663" d="M-90 1339l272 88l541 -1556l-277 -88z" />
<glyph unicode="]" horiz-adv-x="665" d="M43 -41h262v1352h-262v213h508v-1780h-508v215z" />
<glyph unicode="^" d="M-31 475l469 873h230l469 -873h-308l-276 520l-277 -520h-307z" />
<glyph unicode="_" horiz-adv-x="950" d="M-12 -23h970v-192h-970v192z" />
<glyph unicode="`" horiz-adv-x="268" d="M-115 1319l240 127l213 -332l-178 -76z" />
<glyph unicode="a" horiz-adv-x="972" d="M53 256q0 65 27 117t73 86.5t112 58.5t138.5 35.5t157.5 15.5v56q0 54 -25.5 85t-76.5 31q-124 0 -297 -71l-58 209q210 77 379 77q87 0 153 -20t105 -52.5t63.5 -79t33 -93t8.5 -101.5v-295q0 -151 24 -315h-249q-16 51 -19 86q-55 -39 -82.5 -56.5t-78 -36 t-101.5 -18.5q-123 0 -205 74t-82 207zM340 281q0 -91 80 -91q23 0 47.5 10.5t41.5 22.5t52 39v144q-108 -5 -164.5 -33.5t-56.5 -91.5z" />
<glyph unicode="b" horiz-adv-x="1134" d="M141 96v1293h291v-476q55 23 100.5 34t114.5 11q189 0 299.5 -134t110.5 -343q0 -102 -32.5 -193t-92.5 -161t-154.5 -111t-210.5 -41q-206 0 -426 121zM432 238q54 -25 127 -25q68 0 115 41t65.5 95t18.5 112q0 51 -9.5 95.5t-30.5 82.5t-58.5 60t-88.5 22 q-78 0 -139 -39v-444z" />
<glyph unicode="c" horiz-adv-x="860" d="M72 463q0 230 128.5 359.5t358.5 129.5q134 0 266 -59l-67 -223q-102 57 -201 57q-89 0 -139.5 -61.5t-50.5 -180.5q0 -133 53 -206.5t158 -73.5q91 0 188 51l63 -215q-136 -59 -284 -59q-231 0 -352 124t-121 357z" />
<glyph unicode="d" horiz-adv-x="1134" d="M78 467q0 71 18 140t58 132.5t97 112t141.5 77.5t185.5 29q48 0 122 -18v449h291v-1356q-247 -58 -422 -58q-108 0 -193 25.5t-140.5 69t-91.5 107t-51 134.5t-15 156zM379 477q0 -270 223 -270q40 0 98 14v473q-52 27 -127 27q-94 0 -144 -69t-50 -175z" />
<glyph unicode="e" horiz-adv-x="980" d="M74 459q0 81 15.5 152.5t50 135.5t86 110t127.5 72.5t171 26.5q96 0 171.5 -35.5t120.5 -95t68 -131t23 -149.5q0 -83 -12 -154h-557q30 -196 215 -196q112 0 274 67l66 -205q-178 -82 -371 -82q-103 0 -183.5 30t-129.5 77.5t-80 113t-43 129.5t-12 134zM340 567h319 q0 81 -38.5 132t-108.5 51q-147 0 -172 -183z" />
<glyph unicode="f" horiz-adv-x="655" d="M39 723v211h131v84q0 185 96.5 290t308.5 105q145 0 277 -41l-55 -205q-88 31 -189 31q-89 0 -119 -42.5t-30 -137.5v-84h225v-211h-225v-723h-289v723h-131z" />
<glyph unicode="g" horiz-adv-x="962" d="M49 -217q0 144 141 272q-45 57 -45 144q0 55 16 89t50 74q-123 89 -123 254q0 157 105 249.5t270 92.5q81 0 151 -24q164 195 310 237l63 -208q-151 -44 -221 -125q84 -94 84 -228q0 -154 -104.5 -236.5t-274.5 -82.5q-37 0 -53 2q-19 -38 -19 -62q0 -25 24 -43t63 -28.5 t89 -24t102.5 -26.5t102.5 -38t89 -56.5t63 -84.5t24 -120q0 -68 -29.5 -121t-76.5 -84.5t-112 -52t-129.5 -28t-135.5 -7.5q-191 0 -307.5 68t-116.5 198zM283 -184q0 -109 196 -109q60 0 101 6.5t69.5 28t28.5 57.5q0 25 -14 44.5t-34.5 32t-54 24t-64 18.5t-73.5 17.5 t-73 19.5q-82 -82 -82 -139zM340 625q0 -57 33.5 -90t93.5 -33q61 0 97 30t36 91q0 60 -38 94.5t-99 34.5q-60 0 -91.5 -33.5t-31.5 -93.5z" />
<glyph unicode="h" horiz-adv-x="1169" d="M143 0v1389h291v-545q172 112 318 112q135 0 207.5 -78t72.5 -253v-625h-289v565q0 135 -112 135q-39 0 -92.5 -26t-104.5 -76v-598h-291z" />
<glyph unicode="i" horiz-adv-x="575" d="M119 1231q0 66 49 114t119 48t120 -48t50 -114t-50 -113t-120 -47t-119 47t-49 113zM141 0v934h291v-934h-291z" />
<glyph unicode="j" horiz-adv-x="575" d="M-127 -225q55 13 87.5 22.5t67 24.5t52.5 33.5t33.5 46t21.5 64.5t6 87v881h291v-858q0 -131 -21 -216.5t-78 -150.5t-152.5 -104.5t-248.5 -67.5zM117 1231q0 66 49 114t119 48t120 -48t50 -114t-50 -113t-120 -47t-119 47t-49 113z" />
<glyph unicode="k" horiz-adv-x="1077" d="M143 0v1389h291v-807l289 352h344l-365 -406l381 -528h-340l-221 326l-88 -99v-227h-291z" />
<glyph unicode="l" horiz-adv-x="581" d="M145 0v1389h293v-1389h-293z" />
<glyph unicode="m" horiz-adv-x="1728" d="M145 0v934h275v-100q179 122 325 122q175 0 240 -135q194 135 346 135q275 0 275 -331v-625h-291v565q0 63 -28.5 99t-78.5 36q-83 0 -188 -102v-598h-289v565q0 135 -108 135q-85 0 -187 -102v-598h-291z" />
<glyph unicode="n" horiz-adv-x="1171" d="M145 0v934h275v-100q182 122 334 122q135 0 207.5 -78t72.5 -253v-625h-289v565q0 135 -112 135q-39 0 -91.5 -25.5t-105.5 -74.5v-600h-291z" />
<glyph unicode="o" horiz-adv-x="1097" d="M72 459q0 100 30 188.5t88 158t152.5 110t214.5 40.5t212.5 -39t147 -106t82 -150.5t27.5 -179.5q0 -144 -55.5 -257.5t-167 -181t-262.5 -67.5q-114 0 -204.5 38t-147.5 104.5t-87 153.5t-30 188zM367 475q0 -125 48 -200.5t136 -75.5q87 0 132.5 76t45.5 190 q0 123 -44 196.5t-134 73.5q-89 0 -136.5 -69.5t-47.5 -190.5z" />
<glyph unicode="p" horiz-adv-x="1112" d="M139 -455v1366q16 3 68.5 11.5t82.5 13t78 10.5t93.5 9t91.5 3q106 0 190.5 -28.5t139 -75t91 -111t51.5 -132t15 -142.5q0 -45 -9.5 -94.5t-30 -107t-59 -108t-90.5 -93t-130.5 -67t-173.5 -24.5q-57 0 -119 15v-445h-289zM428 236q45 -23 119 -23q96 0 143 68t47 178 q0 40 -6.5 76.5t-22 72t-39.5 61t-62 41t-85 15.5q-44 0 -94 -12v-477z" />
<glyph unicode="q" horiz-adv-x="1110" d="M68 453q0 102 32.5 193t92 160.5t152.5 110.5t206 41q205 0 420 -122v-1291h-287v461q-78 -31 -178 -31q-208 0 -323 133t-115 345zM371 473q0 -52 9.5 -96.5t29.5 -82t55.5 -59.5t83.5 -22q76 0 135 39v442q-58 27 -121 27q-65 0 -110.5 -41t-63.5 -95t-18 -112z" />
<glyph unicode="r" horiz-adv-x="849" d="M147 0v934h287v-143q67 87 122 127t138 40q97 0 168 -59l-63 -248q-44 33 -115 33q-135 0 -250 -205v-479h-287z" />
<glyph unicode="s" horiz-adv-x="839" d="M49 39l68 221q60 -31 135.5 -52.5t130.5 -21.5q119 0 119 72q0 31 -23 54.5t-59.5 39.5t-81 32.5t-89 39t-81 52.5t-59.5 80t-23 114q0 138 110.5 213t276.5 75q128 0 279 -45l-56 -211q-44 19 -105.5 34.5t-107.5 15.5q-118 0 -118 -72q0 -29 23 -50t59.5 -35.5 t80.5 -29.5t88.5 -38t81 -54.5t59.5 -85t23 -123.5q0 -76 -29.5 -133t-83 -90.5t-120.5 -49.5t-148 -16q-136 0 -350 64z" />
<glyph unicode="t" horiz-adv-x="720" d="M20 723v211h136v287l288 67v-354h232v-211h-232v-383q0 -66 28.5 -96.5t92.5 -30.5q27 0 115 16l39 -225q-103 -29 -207 -29q-183 0 -269.5 86t-86.5 271v391h-136z" />
<glyph unicode="u" horiz-adv-x="1171" d="M139 311v623h289v-584q0 -125 98 -125q92 0 211 119v590h291v-934h-256l-6 98q-107 -72 -169 -97.5t-163 -25.5q-139 0 -217 81.5t-78 254.5z" />
<glyph unicode="v" horiz-adv-x="991" d="M-20 934h323l211 -586l193 586h305l-398 -934h-223z" />
<glyph unicode="w" horiz-adv-x="1419" d="M6 934h299l125 -516l197 516h194l205 -514l109 514h278l-266 -934h-195l-235 557l-238 -557h-194z" />
<glyph unicode="x" horiz-adv-x="929" d="M-45 0l346 479l-319 455h337l158 -262l172 262h309l-325 -457l342 -477h-340l-180 279l-191 -279h-309z" />
<glyph unicode="y" horiz-adv-x="964" d="M-29 934h310l231 -533l178 533h301l-366 -938q-49 -125 -109 -210.5t-133 -134.5t-150 -72.5t-176 -31.5l-53 226q137 14 213.5 66t130.5 177l27 60z" />
<glyph unicode="z" horiz-adv-x="909" d="M37 176l442 541h-418v217h775l22 -174l-448 -543h473v-217h-832z" />
<glyph unicode="{" horiz-adv-x="624" d="M23 569v166q89 3 140.5 58t51.5 147v281q0 55 12 100.5t28.5 75.5t46 54t52.5 36.5t60.5 22.5t58 13.5t55.5 8.5l31 -176q-60 -6 -86.5 -40t-26.5 -110v-291q0 -117 -50 -183t-111 -75q71 -29 116 -100t45 -182v-322q0 -120 134 -145l-45 -176q-34 6 -52 9.5t-50 11.5 t-50 15.5t-44.5 21t-41.5 29t-33 38t-27 49.5t-15.5 63t-6.5 78v234q0 140 -41 210.5t-151 77.5z" />
<glyph unicode="|" horiz-adv-x="608" d="M166 -197v1586h276v-1586h-276z" />
<glyph unicode="}" horiz-adv-x="624" d="M45 1358l45 176q44 -8 67 -12.5t62.5 -16.5t61.5 -25t49.5 -37t42 -53.5t25 -73t10.5 -97.5v-234q0 -140 42 -211t152 -78v-166q-90 -3 -142 -57.5t-52 -146.5v-281q0 -55 -12 -100.5t-28.5 -75.5t-45.5 -54t-52.5 -36.5t-60.5 -22.5t-57.5 -13.5t-55.5 -8.5l-30 176 q60 6 86 39.5t26 109.5v291q0 117 50.5 183t111.5 75q-71 29 -116.5 100.5t-45.5 182.5v321q0 121 -133 146z" />
<glyph unicode="~" horiz-adv-x="1021" d="M43 567q155 125 297 125q56 0 109.5 -18t88 -39t77.5 -39t81 -18q96 0 199 79l82 -188q-46 -48 -126 -88.5t-173 -40.5q-54 0 -105.5 17.5t-85 38t-79 38t-89.5 17.5q-120 0 -202 -68z" />
<glyph unicode="&#xa1;" horiz-adv-x="524" d="M94 791q0 68 50.5 116.5t123.5 48.5t122.5 -48.5t49.5 -116.5q0 -69 -51 -119.5t-121 -50.5q-72 0 -123 50.5t-51 119.5zM106 -334l21 836h272l19 -836h-312z" />
<glyph unicode="&#xa2;" horiz-adv-x="882" d="M72 463q0 185 89.5 309t248.5 166v182h245v-168q92 -12 189 -53l-66 -237q-103 59 -203 59q-198 0 -198 -236q0 -126 55.5 -199t157.5 -73q99 0 192 49l66 -227q-87 -38 -193 -53v-199h-245v211q-164 38 -251 161.5t-87 307.5z" />
<glyph unicode="&#xa3;" horiz-adv-x="1054" d="M37 557v219h162v98q0 179 122 296.5t312 117.5q179 0 334 -55l-66 -211q-115 45 -219 45q-99 0 -151 -55t-52 -146v-90h240v-219h-240v-72q0 -201 -67 -260h532v-225h-878l-23 176q85 50 120.5 123t35.5 203v55h-162z" />
<glyph unicode="&#xa4;" d="M37 389v207h127v84h-127v207h162q54 180 181.5 292.5t324.5 112.5q96 0 164.5 -19.5t164.5 -68.5l-71 -235q-80 50 -131 69t-121 19q-25 0 -49.5 -7t-53.5 -24t-55.5 -52.5t-44.5 -86.5h334v-207h-369v-84h369v-207h-334q63 -180 211 -180q64 0 121.5 21t140.5 69 l70 -236q-85 -51 -165 -71.5t-181 -20.5q-217 0 -344.5 111.5t-172.5 306.5h-151z" />
<glyph unicode="&#xa5;" horiz-adv-x="1077" d="M0 1266h303l234 -510l235 510h305l-231 -426h194v-205h-305l-47 -86h352v-205h-360v-348h-289v348h-360v205h354l-45 86h-309v205h198z" />
<glyph unicode="&#xa6;" horiz-adv-x="608" d="M166 -197v686h276v-686h-276zM166 748v643h276v-643h-276z" />
<glyph unicode="&#xa7;" horiz-adv-x="1056" d="M137 -221l53 205q181 -52 285 -52q162 0 162 93q0 38 -27 69.5t-70.5 54.5t-96 46t-105 50.5t-96 60.5t-70.5 84t-27 114q0 68 35.5 127.5t114.5 122.5q-125 102 -125 237q0 62 25.5 113.5t67.5 85t96.5 57t110.5 33.5t112 10q195 0 329 -41l-45 -221q-54 23 -131 36 t-145 13q-154 0 -154 -90q0 -40 36 -74t89.5 -57t116.5 -53.5t116.5 -63.5t89.5 -88t36 -125q0 -145 -148 -235q135 -99 135 -254q0 -82 -37 -145t-100 -99.5t-139 -55t-162 -18.5q-160 0 -332 60zM416 539q0 -29 26.5 -56t56 -43t89.5 -45q63 49 63 101q0 37 -41 68 t-127 75q-67 -51 -67 -100z" />
<glyph unicode="&#xa8;" horiz-adv-x="747" d="M-35 1219q0 67 49 112t121 45q70 0 118 -46.5t48 -110.5q0 -65 -49.5 -109.5t-116.5 -44.5q-71 0 -120.5 45t-49.5 109zM442 1219q0 64 48 110.5t116 46.5q74 0 124 -46.5t50 -110.5q0 -63 -50.5 -108.5t-123.5 -45.5q-67 0 -115.5 45.5t-48.5 108.5z" />
<glyph unicode="&#xa9;" horiz-adv-x="2283" d="M119 512q0 161 51.5 311.5t145.5 272t219 212.5t280.5 141t321.5 50t321 -50t280 -141t218.5 -212.5t144.5 -272t51 -311.5q0 -202 -80 -385t-215.5 -316t-324 -211.5t-395.5 -78.5q-208 0 -396 76t-324.5 207t-217 315.5t-80.5 392.5zM373 510q0 -212 103 -385 t277.5 -269t381.5 -96q156 0 298 59t244.5 159.5t163 239.5t60.5 292t-61 292t-164 239.5t-244.5 159.5t-296.5 59t-296.5 -59.5t-243.5 -160t-162 -239t-60 -291.5zM594 520q0 94 30.5 177t83 143.5t122 104t149 65.5t162.5 22q101 0 187 -20t196 -70l-82 -227 q-97 47 -151.5 63.5t-121.5 16.5q-36 0 -72 -7.5t-74 -27.5t-66.5 -49.5t-47 -78.5t-18.5 -110q0 -68 20 -123.5t49.5 -89t67.5 -56.5t71 -31.5t62 -8.5q81 0 140 13.5t151 56.5l82 -217q-55 -28 -98 -44.5t-123 -32.5t-172 -16q-115 0 -214 36t-173.5 103.5t-117 172.5 t-42.5 235z" />
<glyph unicode="&#xaa;" horiz-adv-x="737" d="M35 784q0 63 28.5 108t81.5 70t113 37.5t139 16.5v33q0 29 -20 47t-58 18q-93 0 -208 -45l-45 172q163 55 303 55q134 0 201 -69t67 -178v-287q0 -19 12 -160h-207l-12 60q-3 -2 -17.5 -11t-18.5 -11.5t-17.5 -10.5t-18.5 -10.5l-18 -9t-20 -9t-19 -6.5t-21 -5.5t-20 -3 t-22 -1.5q-97 0 -150 58t-53 142zM51 297v209h617v-209h-617zM250 809q0 -21 12 -34t35 -13q44 0 100 39v84q-60 0 -103.5 -21t-43.5 -55z" />
<glyph unicode="&#xab;" horiz-adv-x="1095" d="M82 471l315 408l224 -62l-215 -346l221 -356l-230 -52zM504 471l297 365l213 -60l-187 -303l187 -311l-226 -56z" />
<glyph unicode="&#xac;" horiz-adv-x="1103" d="M39 451v231h1022v-532h-230l-2 301h-790z" />
<glyph unicode="&#xad;" horiz-adv-x="817" d="M96 430v234h625v-234h-625z" />
<glyph unicode="&#xae;" horiz-adv-x="2283" d="M119 512q0 161 51.5 311.5t145.5 272t219 212.5t280.5 141t321.5 50t321 -50t280 -141t218.5 -212.5t144.5 -272t51 -311.5q0 -202 -80 -385t-215.5 -316t-324 -211.5t-395.5 -78.5q-208 0 -396 76t-324.5 207t-217 315.5t-80.5 392.5zM373 510q0 -212 103 -385 t277.5 -269t381.5 -96q156 0 298 59t244.5 159.5t163 239.5t60.5 292t-61 292t-164 239.5t-244.5 159.5t-296.5 59t-296.5 -59.5t-243.5 -160t-162 -239t-60 -291.5zM754 -4v1028h327q102 0 182 -16.5t131.5 -45t84.5 -69t47 -85t14 -97.5q0 -95 -48 -165t-130 -112 l217 -438h-276l-156 377q-73 -6 -131 2v-379h-262zM1016 559q266 -11 266 137q0 21 -2.5 35t-14 33t-33.5 30.5t-64.5 20t-102.5 8.5h-49v-264z" />
<glyph unicode="&#xaf;" horiz-adv-x="612" d="M-23 1071v193h656v-193h-656z" />
<glyph unicode="&#xb0;" horiz-adv-x="845" d="M68 1116q0 137 103.5 231.5t252.5 94.5t251.5 -94.5t102.5 -231.5q0 -138 -102 -233t-252 -95q-154 0 -255 93.5t-101 234.5zM272 1116q0 -67 43 -110t109 -43q65 0 108 43t43 110t-43 110.5t-108 43.5q-66 0 -109 -43.5t-43 -110.5z" />
<glyph unicode="&#xb1;" d="M111 0v233h882v-233h-882zM111 600v223h311v297h262v-297h309v-223h-309v-285h-262v285h-311z" />
<glyph unicode="&#xb2;" horiz-adv-x="704" d="M37 717v145q124 65 229 150.5t105 148.5q0 53 -66 53q-86 0 -201 -61l-61 188q82 38 142 54t124 16q87 0 151 -21t97.5 -56.5t48.5 -73t15 -78.5q0 -122 -164 -269h190v-196h-610z" />
<glyph unicode="&#xb3;" horiz-adv-x="643" d="M23 1370q105 41 237 41q136 0 220.5 -54t84.5 -163q0 -94 -108 -156q70 -21 106.5 -73.5t36.5 -116.5q0 -104 -65.5 -175.5t-169.5 -103.5t-238 -32q-32 0 -86 8v194q47 -4 82 -4q92 0 153.5 27t61.5 76q0 68 -172 65l-57 2l-9 160l56 4q65 5 107 29.5t42 58.5 q0 28 -25.5 44t-58.5 16q-65 0 -147 -29z" />
<glyph unicode="&#xb4;" horiz-adv-x="268" d="M-74 1116l230 328l206 -131l-280 -275z" />
<glyph unicode="&#xb6;" horiz-adv-x="1224" d="M-14 963q0 72 18.5 134.5t63.5 120t114 98t176.5 65t245.5 24.5h481v-1579h-274v1341h-182q-106 0 -183.5 -17t-125.5 -59t-48 -106q0 -203 400 -203v-956h-273v737q-103 15 -183.5 55t-129.5 95t-74.5 118.5t-25.5 131.5z" />
<glyph unicode="&#xb7;" horiz-adv-x="540" d="M98 614q0 68 50.5 117t123.5 49t122.5 -49t49.5 -117q0 -69 -51 -119.5t-121 -50.5q-72 0 -123 50.5t-51 119.5z" />
<glyph unicode="&#xb8;" horiz-adv-x="557" d="M80 -440l35 131q71 -23 114 -23q93 0 93 62q0 74 -142 67l27 213l155 -2l-16 -104q164 -46 164 -187q0 -95 -72 -141.5t-180 -46.5q-83 0 -178 31z" />
<glyph unicode="&#xb9;" horiz-adv-x="579" d="M-8 1225l301 168h194v-676h-254v395l-163 -63z" />
<glyph unicode="&#xba;" horiz-adv-x="847" d="M49 946q0 34 8.5 73.5t33.5 90t63 90t105.5 67t152.5 27.5q90 0 157.5 -27t103 -64.5t57.5 -88.5t28 -89t6 -75q0 -42 -10 -87t-36 -95t-65.5 -88.5t-105 -64t-148.5 -25.5q-85 0 -150 26.5t-102 65t-60 90t-30.5 93t-7.5 81.5zM80 297v209h704v-209h-704zM303 952 q0 -36 7.5 -68.5t32.5 -61.5t65 -29q32 0 54.5 15.5t32.5 41.5t13.5 48t3.5 46q0 32 -8 63t-33.5 59t-64.5 28q-32 0 -54 -14.5t-31.5 -38t-13.5 -45t-4 -44.5z" />
<glyph unicode="&#xbb;" horiz-adv-x="1099" d="M82 780l227 54l287 -365l-295 -363l-217 62l184 299zM471 823l229 56l318 -408l-318 -408l-223 62l217 346z" />
<glyph unicode="&#xbc;" horiz-adv-x="1587" d="M20 1116l299 172h183v-747h-232l9 497l-197 -77zM244 170l975 1149l178 -164l-979 -1147zM934 301l174 451h238l-179 -426h97l28 190h181l2 -190h88v-179h-88v-147h-228v147h-260z" />
<glyph unicode="&#xbd;" horiz-adv-x="1656" d="M20 1116l299 172h183v-747h-232l9 497l-197 -77zM240 170l974 1149l179 -164l-979 -1147zM1038 119q72 60 137 123t120 138t55 120q0 59 -70 59q-28 0 -59.5 -6.5t-52 -13.5t-66.5 -23l-49 176q144 56 264 56q137 0 202.5 -60t65.5 -168q0 -153 -209 -348h232v-172h-549z " />
<glyph unicode="&#xbe;" horiz-adv-x="1583" d="M0 551l51 182q83 -24 154 -24q96 0 96 65q0 62 -115 62h-106l-6 151l55 2q62 2 103.5 21.5t41.5 56.5q0 45 -57 45q-69 0 -151 -41l-58 162q131 61 258 61q111 0 183.5 -46.5t72.5 -141.5q0 -99 -88 -154q117 -46 117 -176q0 -119 -96 -184.5t-254 -65.5q-98 0 -201 25z M223 170l975 1149l178 -164l-979 -1147zM934 301l174 451h238l-179 -426h97l28 190h181l2 -190h88v-179h-88v-147h-228v147h-260z" />
<glyph unicode="&#xbf;" horiz-adv-x="856" d="M61 -53q1 62 29 115t67.5 92.5l78.5 78.5t66.5 89.5t27.5 109.5v88h291v-104q0 -75 -27.5 -136t-66.5 -99.5t-77.5 -71.5t-66 -68t-27.5 -72q0 -75 99 -75q128 0 297 104l79 -227q-196 -121 -397 -121q-373 0 -373 297zM299 791q0 68 50.5 116.5t123.5 48.5t122.5 -48.5 t49.5 -116.5q0 -69 -51 -119.5t-121 -50.5q-72 0 -123 50.5t-51 119.5z" />
<glyph unicode="&#xc0;" horiz-adv-x="1232" d="M-25 0l490 1268h285l507 -1268h-319l-125 317h-420l-123 -317h-295zM354 1632l240 127l213 -332l-178 -75zM471 547h262l-133 428z" />
<glyph unicode="&#xc1;" horiz-adv-x="1232" d="M-25 0l490 1268h285l507 -1268h-319l-125 317h-420l-123 -317h-295zM471 547h262l-133 428zM498 1430l229 327l207 -131l-281 -272z" />
<glyph unicode="&#xc2;" horiz-adv-x="1232" d="M-25 0l490 1268h285l507 -1268h-319l-125 317h-420l-123 -317h-295zM289 1438l346 291l356 -277l-141 -111l-215 136l-211 -136zM471 547h262l-133 428z" />
<glyph unicode="&#xc3;" horiz-adv-x="1232" d="M-25 0l490 1268h285l507 -1268h-319l-125 317h-420l-123 -317h-295zM297 1501q119 113 248 113q62 0 117.5 -22.5t85.5 -22.5q72 0 145 57l106 -110q-117 -134 -249 -134q-68 0 -124 24t-83 24q-53 0 -148 -56zM471 547h262l-133 428z" />
<glyph unicode="&#xc4;" horiz-adv-x="1232" d="M-25 0l490 1268h285l507 -1268h-319l-125 317h-420l-123 -317h-295zM193 1518q0 66 49 111.5t120 45.5q70 0 118 -46.5t48 -110.5q0 -65 -49.5 -109.5t-116.5 -44.5q-72 0 -120.5 44.5t-48.5 109.5zM471 547h262l-133 428zM670 1518q0 64 48 110.5t116 46.5 q74 0 124 -46.5t50 -110.5q0 -65 -50.5 -109.5t-123.5 -44.5q-68 0 -116 45t-48 109z" />
<glyph unicode="&#xc5;" horiz-adv-x="1232" d="M-25 0l457 1186q-70 70 -70 164q0 99 76.5 169t184.5 70q109 0 184.5 -70t75.5 -169q0 -111 -95 -183l469 -1167h-319l-125 317h-420l-123 -317h-295zM471 547h262l-133 428zM539 1350q0 -34 24 -58t60 -24q35 0 57 24t22 58q0 36 -22 60t-57 24q-36 0 -60 -24t-24 -60z " />
<glyph unicode="&#xc6;" horiz-adv-x="1648" d="M-88 0l782 1268h824v-234h-502l43 -248h414v-233h-369l51 -320h406v-233h-654l-57 350h-395l-201 -350h-342zM575 563h244l-57 391z" />
<glyph unicode="&#xc7;" horiz-adv-x="1060" d="M74 655q0 93 22 182.5t70 172.5t117.5 145t172.5 99.5t226 37.5q82 0 143.5 -8.5t94.5 -18.5t124 -40l-55 -240q-101 40 -165 55t-150 15q-79 0 -137 -31.5t-91.5 -88t-49 -124.5t-15.5 -149q0 -89 16 -164.5t50.5 -140.5t97 -102.5t147.5 -37.5q128 0 293 72l70 -236 q-161 -71 -348 -76l-11 -73q164 -46 164 -187q0 -95 -72 -141.5t-180 -46.5q-83 0 -178 31l35 131q71 -23 115 -23q92 0 92 62q0 74 -142 67l23 189q-110 15 -195.5 62t-138 111.5t-86 149.5t-46.5 168.5t-13 177.5z" />
<glyph unicode="&#xc8;" d="M166 0v1268h840v-234h-551v-266h497v-233h-497v-302h583v-233h-872zM324 1632l239 127l211 -332l-178 -73z" />
<glyph unicode="&#xc9;" d="M166 0v1268h840v-234h-551v-266h497v-233h-497v-302h583v-233h-872zM440 1430l230 327l207 -131l-281 -274z" />
<glyph unicode="&#xca;" d="M166 0v1268h840v-234h-551v-266h497v-233h-497v-302h583v-233h-872zM225 1438l346 288l357 -274l-142 -113l-213 138l-211 -138z" />
<glyph unicode="&#xcb;" d="M166 0v1268h840v-234h-551v-266h497v-233h-497v-302h583v-233h-872zM176 1518q0 67 49 112t121 45q70 0 118 -46.5t48 -110.5q0 -65 -49.5 -109.5t-116.5 -44.5q-71 0 -120.5 45t-49.5 109zM653 1518q0 64 48 110.5t116 46.5q74 0 124 -46.5t50 -110.5 q0 -63 -50.5 -108.5t-123.5 -45.5q-67 0 -115.5 45.5t-48.5 108.5z" />
<glyph unicode="&#xcc;" horiz-adv-x="608" d="M33 1632l239 127l213 -332l-178 -75zM162 0v1268h287v-1268h-287z" />
<glyph unicode="&#xcd;" horiz-adv-x="608" d="M145 1430l230 327l207 -131l-281 -274zM162 0v1268h287v-1268h-287z" />
<glyph unicode="&#xce;" horiz-adv-x="608" d="M-41 1438l346 288l357 -274l-142 -113l-213 138l-211 -138zM162 0v1268h287v-1268h-287z" />
<glyph unicode="&#xcf;" horiz-adv-x="608" d="M-92 1532q0 67 49 112.5t121 45.5q70 0 118 -47t48 -111q0 -65 -49.5 -109.5t-116.5 -44.5q-71 0 -120.5 45t-49.5 109zM162 0v1268h287v-1268h-287zM385 1532q0 64 48 111t116 47q74 0 124 -47t50 -111q0 -63 -50.5 -108.5t-123.5 -45.5q-67 0 -115.5 45.5t-48.5 108.5z " />
<glyph unicode="&#xd0;" horiz-adv-x="1366" d="M4 545v192h156v531h448q149 0 265.5 -36t189.5 -94.5t120 -141.5t66 -169t19 -184q0 -106 -21.5 -198.5t-72 -175.5t-127 -141.5t-193 -93t-264.5 -34.5h-430v545h-156zM449 233h174q174 0 259 104.5t85 293.5q0 93 -18 162.5t-60.5 125.5t-120.5 85.5t-190 29.5h-129 v-297h210v-192h-210v-312z" />
<glyph unicode="&#xd1;" horiz-adv-x="1458" d="M166 0v1268h213l635 -762v762h278v-1268h-215l-633 776v-776h-278zM385 1501q119 113 248 113q62 0 117.5 -22.5t85.5 -22.5q72 0 145 57l106 -110q-117 -134 -249 -134q-68 0 -124 24t-83 24q-53 0 -148 -56z" />
<glyph unicode="&#xd2;" horiz-adv-x="1404" d="M82 616q0 94 19 184t66 181t116.5 158.5t180.5 110t249 42.5q133 0 240 -38.5t174.5 -101t113 -147.5t64 -172t18.5 -180q0 -68 -8.5 -132.5t-30 -133t-53.5 -128t-83 -112.5t-114.5 -90.5t-151.5 -59.5t-192 -22q-102 0 -188 21.5t-147.5 57.5t-110 87t-78.5 107 t-49.5 120.5t-27 124.5t-7.5 123zM383 627q0 -88 16 -160t51 -132t97.5 -93t148.5 -33q85 0 150 35t103 96.5t56.5 137t18.5 163.5q0 67 -8.5 124.5t-30.5 113t-57 94.5t-91.5 62.5t-129.5 23.5q-74 0 -131.5 -25t-93.5 -66t-58.5 -98.5t-31.5 -116.5t-9 -126zM414 1632 l239 127l213 -332l-178 -75z" />
<glyph unicode="&#xd3;" horiz-adv-x="1404" d="M82 616q0 94 19 184t66 181t116.5 158.5t180.5 110t249 42.5q133 0 240 -38.5t174.5 -101t113 -147.5t64 -172t18.5 -180q0 -68 -8.5 -132.5t-30 -133t-53.5 -128t-83 -112.5t-114.5 -90.5t-151.5 -59.5t-192 -22q-102 0 -188 21.5t-147.5 57.5t-110 87t-78.5 107 t-49.5 120.5t-27 124.5t-7.5 123zM383 627q0 -88 16 -160t51 -132t97.5 -93t148.5 -33q85 0 150 35t103 96.5t56.5 137t18.5 163.5q0 67 -8.5 124.5t-30.5 113t-57 94.5t-91.5 62.5t-129.5 23.5q-74 0 -131.5 -25t-93.5 -66t-58.5 -98.5t-31.5 -116.5t-9 -126zM553 1430 l229 327l207 -131l-280 -274z" />
<glyph unicode="&#xd4;" horiz-adv-x="1404" d="M82 616q0 94 19 184t66 181t116.5 158.5t180.5 110t249 42.5q133 0 240 -38.5t174.5 -101t113 -147.5t64 -172t18.5 -180q0 -68 -8.5 -132.5t-30 -133t-53.5 -128t-83 -112.5t-114.5 -90.5t-151.5 -59.5t-192 -22q-102 0 -188 21.5t-147.5 57.5t-110 87t-78.5 107 t-49.5 120.5t-27 124.5t-7.5 123zM365 1438l346 288l356 -274l-141 -113l-213 138l-211 -138zM383 627q0 -88 16 -160t51 -132t97.5 -93t148.5 -33q85 0 150 35t103 96.5t56.5 137t18.5 163.5q0 67 -8.5 124.5t-30.5 113t-57 94.5t-91.5 62.5t-129.5 23.5q-74 0 -131.5 -25 t-93.5 -66t-58.5 -98.5t-31.5 -116.5t-9 -126z" />
<glyph unicode="&#xd5;" horiz-adv-x="1404" d="M82 616q0 94 19 184t66 181t116.5 158.5t180.5 110t249 42.5q133 0 240 -38.5t174.5 -101t113 -147.5t64 -172t18.5 -180q0 -68 -8.5 -132.5t-30 -133t-53.5 -128t-83 -112.5t-114.5 -90.5t-151.5 -59.5t-192 -22q-102 0 -188 21.5t-147.5 57.5t-110 87t-78.5 107 t-49.5 120.5t-27 124.5t-7.5 123zM377 1501q119 113 248 113q62 0 117 -22.5t85 -22.5q73 0 146 57l106 -110q-117 -134 -250 -134q-68 0 -123.5 24t-82.5 24q-53 0 -148 -56zM383 627q0 -88 16 -160t51 -132t97.5 -93t148.5 -33q85 0 150 35t103 96.5t56.5 137t18.5 163.5 q0 67 -8.5 124.5t-30.5 113t-57 94.5t-91.5 62.5t-129.5 23.5q-74 0 -131.5 -25t-93.5 -66t-58.5 -98.5t-31.5 -116.5t-9 -126z" />
<glyph unicode="&#xd6;" horiz-adv-x="1404" d="M82 616q0 94 19 184t66 181t116.5 158.5t180.5 110t249 42.5q133 0 240 -38.5t174.5 -101t113 -147.5t64 -172t18.5 -180q0 -68 -8.5 -132.5t-30 -133t-53.5 -128t-83 -112.5t-114.5 -90.5t-151.5 -59.5t-192 -22q-102 0 -188 21.5t-147.5 57.5t-110 87t-78.5 107 t-49.5 120.5t-27 124.5t-7.5 123zM311 1532q0 67 49 112.5t121 45.5q70 0 118 -47t48 -111q0 -65 -49.5 -109.5t-116.5 -44.5q-71 0 -120.5 45t-49.5 109zM383 627q0 -88 16 -160t51 -132t97.5 -93t148.5 -33q85 0 150 35t103 96.5t56.5 137t18.5 163.5q0 67 -8.5 124.5 t-30.5 113t-57 94.5t-91.5 62.5t-129.5 23.5q-74 0 -131.5 -25t-93.5 -66t-58.5 -98.5t-31.5 -116.5t-9 -126zM788 1532q0 64 48 111t116 47q74 0 124 -47t50 -111q0 -63 -50.5 -108.5t-123.5 -45.5q-67 0 -115.5 45.5t-48.5 108.5z" />
<glyph unicode="&#xd7;" d="M90 795l170 172l293 -295l293 293l170 -172l-293 -291l293 -291l-170 -170l-293 293l-291 -293l-168 170l289 291z" />
<glyph unicode="&#xd8;" horiz-adv-x="1404" d="M-4 129l158 145q-72 148 -72 342q0 94 19 184t66 181t116.5 158.5t180.5 110t249 42.5q244 0 397 -127l158 146l170 -187l-176 -163q61 -136 61 -308q0 -68 -8.5 -132.5t-30 -133t-53.5 -128t-83 -112.5t-114.5 -90.5t-151.5 -59.5t-192 -22q-225 0 -375 105l-145 -137z M383 627q0 -77 12 -144l529 492q-81 84 -217 84q-74 0 -131.5 -25t-93.5 -66t-58.5 -98.5t-31.5 -116.5t-9 -126zM504 270q74 -61 192 -61q85 0 150 35t103 96.5t56.5 137t18.5 163.5q0 39 -8 109z" />
<glyph unicode="&#xd9;" horiz-adv-x="1368" d="M156 459v809h288v-750q0 -293 246 -293q58 0 101.5 17.5t68.5 45t40.5 68t20.5 79t5 85.5v748h288v-803q0 -75 -19 -144.5t-61.5 -133t-104.5 -110.5t-155.5 -74.5t-207.5 -27.5q-112 0 -201 28t-146 74t-94.5 110t-53 131t-15.5 141zM430 1632l240 127l213 -332 l-178 -75z" />
<glyph unicode="&#xda;" horiz-adv-x="1368" d="M156 459v809h288v-750q0 -293 246 -293q58 0 101.5 17.5t68.5 45t40.5 68t20.5 79t5 85.5v748h288v-803q0 -75 -19 -144.5t-61.5 -133t-104.5 -110.5t-155.5 -74.5t-207.5 -27.5q-112 0 -201 28t-146 74t-94.5 110t-53 131t-15.5 141zM532 1430l230 327l207 -131 l-281 -274z" />
<glyph unicode="&#xdb;" horiz-adv-x="1368" d="M156 459v809h288v-750q0 -293 246 -293q58 0 101.5 17.5t68.5 45t40.5 68t20.5 79t5 85.5v748h288v-803q0 -75 -19 -144.5t-61.5 -133t-104.5 -110.5t-155.5 -74.5t-207.5 -27.5q-112 0 -201 28t-146 74t-94.5 110t-53 131t-15.5 141zM346 1438l346 288l357 -274 l-142 -113l-213 138l-211 -138z" />
<glyph unicode="&#xdc;" horiz-adv-x="1368" d="M156 459v809h288v-750q0 -293 246 -293q58 0 101.5 17.5t68.5 45t40.5 68t20.5 79t5 85.5v748h288v-803q0 -75 -19 -144.5t-61.5 -133t-104.5 -110.5t-155.5 -74.5t-207.5 -27.5q-112 0 -201 28t-146 74t-94.5 110t-53 131t-15.5 141zM293 1532q0 67 49 112.5t121 45.5 q70 0 118 -47t48 -111q0 -65 -49.5 -109.5t-116.5 -44.5q-71 0 -120.5 45t-49.5 109zM770 1532q0 64 48 111t116 47q74 0 124 -47t50 -111q0 -63 -50.5 -108.5t-123.5 -45.5q-67 0 -115.5 45.5t-48.5 108.5z" />
<glyph unicode="&#xdd;" horiz-adv-x="1048" d="M-70 1268h322l283 -574l284 574h299l-446 -846v-422h-289v408zM379 1430l229 327l207 -131l-280 -274z" />
<glyph unicode="&#xde;" horiz-adv-x="1103" d="M180 0v1268h289v-232h88q121 0 215 -28.5t148.5 -71t89.5 -99t47 -106t12 -98.5q0 -51 -14 -103t-49 -106t-87.5 -95t-137.5 -67t-191 -26q-61 0 -121 8v-244h-289zM469 475q50 -6 111 -6q51 0 88.5 14.5t57.5 39.5t29 52t9 58q0 22 -3 40.5t-17.5 43.5t-38.5 42 t-70.5 29.5t-110.5 12.5h-55v-326z" />
<glyph unicode="&#xdf;" horiz-adv-x="1171" d="M145 0v944q0 217 122.5 343t357.5 126q203 0 318.5 -88.5t115.5 -224.5q0 -61 -18.5 -113t-45.5 -86t-54 -64t-45.5 -61t-18.5 -63q0 -38 27.5 -73t66.5 -67t78 -70t66.5 -98t27.5 -135q0 -70 -25 -125t-63 -86.5t-89.5 -51.5t-97 -27t-92.5 -7q-139 0 -280 58l71 233 q64 -32 107.5 -46.5t87.5 -14.5q86 0 86 69q0 28 -19.5 57t-49 53t-63.5 56t-63.5 65t-49 82t-19.5 105t19 103.5t46 81t54 63t46 62.5t19 67q0 48 -36.5 84.5t-106.5 36.5q-94 0 -141.5 -67.5t-47.5 -176.5v-944h-291z" />
<glyph unicode="&#xe0;" horiz-adv-x="970" d="M53 256q0 65 27 117t73 86.5t112 58.5t138.5 35.5t157.5 15.5v56q0 54 -25.5 85t-76.5 31q-124 0 -297 -71l-58 209q210 77 379 77q87 0 153 -20t105 -52.5t63.5 -79t33 -93t8.5 -101.5v-295q0 -151 24 -315h-249q-16 51 -19 86q-55 -39 -82.5 -56.5t-78 -36 t-101.5 -18.5q-123 0 -205 74t-82 207zM221 1319l240 127l213 -332l-178 -76zM340 281q0 -91 80 -91q23 0 47.5 10.5t41.5 22.5t52 39v144q-108 -5 -164.5 -33.5t-56.5 -91.5z" />
<glyph unicode="&#xe1;" horiz-adv-x="970" d="M53 256q0 65 27 117t73 86.5t112 58.5t138.5 35.5t157.5 15.5v56q0 54 -25.5 85t-76.5 31q-124 0 -297 -71l-58 209q210 77 379 77q87 0 153 -20t105 -52.5t63.5 -79t33 -93t8.5 -101.5v-295q0 -151 24 -315h-249q-16 51 -19 86q-55 -39 -82.5 -56.5t-78 -36 t-101.5 -18.5q-123 0 -205 74t-82 207zM340 281q0 -91 80 -91q23 0 47.5 10.5t41.5 22.5t52 39v144q-108 -5 -164.5 -33.5t-56.5 -91.5zM360 1116l230 328l207 -131l-281 -275z" />
<glyph unicode="&#xe2;" horiz-adv-x="970" d="M53 256q0 65 27 117t73 86.5t112 58.5t138.5 35.5t157.5 15.5v56q0 54 -25.5 85t-76.5 31q-124 0 -297 -71l-58 209q210 77 379 77q87 0 153 -20t105 -52.5t63.5 -79t33 -93t8.5 -101.5v-295q0 -151 24 -315h-249q-16 51 -19 86q-55 -39 -82.5 -56.5t-78 -36 t-101.5 -18.5q-123 0 -205 74t-82 207zM156 1124l346 289l356 -274l-141 -113l-213 137l-211 -137zM340 281q0 -91 80 -91q23 0 47.5 10.5t41.5 22.5t52 39v144q-108 -5 -164.5 -33.5t-56.5 -91.5z" />
<glyph unicode="&#xe3;" horiz-adv-x="970" d="M53 256q0 65 27 117t73 86.5t112 58.5t138.5 35.5t157.5 15.5v56q0 54 -25.5 85t-76.5 31q-124 0 -297 -71l-58 209q210 77 379 77q87 0 153 -20t105 -52.5t63.5 -79t33 -93t8.5 -101.5v-295q0 -151 24 -315h-249q-16 51 -19 86q-55 -39 -82.5 -56.5t-78 -36 t-101.5 -18.5q-123 0 -205 74t-82 207zM156 1188q118 112 247 112q62 0 117.5 -22.5t85.5 -22.5q72 0 146 58l106 -111q-116 -133 -250 -133q-68 0 -124 23.5t-83 23.5q-53 0 -147 -55zM340 281q0 -91 80 -91q23 0 47.5 10.5t41.5 22.5t52 39v144q-108 -5 -164.5 -33.5 t-56.5 -91.5z" />
<glyph unicode="&#xe4;" horiz-adv-x="970" d="M53 256q0 65 27 117t73 86.5t112 58.5t138.5 35.5t157.5 15.5v56q0 54 -25.5 85t-76.5 31q-124 0 -297 -71l-58 209q210 77 379 77q87 0 153 -20t105 -52.5t63.5 -79t33 -93t8.5 -101.5v-295q0 -151 24 -315h-249q-16 51 -19 86q-55 -39 -82.5 -56.5t-78 -36 t-101.5 -18.5q-123 0 -205 74t-82 207zM72 1219q0 67 49 112t121 45q70 0 118 -46.5t48 -110.5q0 -65 -49.5 -109.5t-116.5 -44.5q-71 0 -120.5 45t-49.5 109zM340 281q0 -91 80 -91q23 0 47.5 10.5t41.5 22.5t52 39v144q-108 -5 -164.5 -33.5t-56.5 -91.5zM549 1219 q0 64 48 110.5t116 46.5q74 0 124 -46.5t50 -110.5q0 -63 -50.5 -108.5t-123.5 -45.5q-67 0 -115.5 45.5t-48.5 108.5z" />
<glyph unicode="&#xe5;" horiz-adv-x="970" d="M53 256q0 65 27 117t73 86.5t112 58.5t138.5 35.5t157.5 15.5v56q0 54 -25.5 85t-76.5 31q-124 0 -297 -71l-58 209q210 77 379 77q87 0 153 -20t105 -52.5t63.5 -79t33 -93t8.5 -101.5v-295q0 -151 24 -315h-249q-16 51 -19 86q-55 -39 -82.5 -56.5t-78 -36 t-101.5 -18.5q-123 0 -205 74t-82 207zM268 1274q0 99 76 169t184 70q109 0 184.5 -70t75.5 -169t-76 -168.5t-184 -69.5t-184 69.5t-76 168.5zM340 281q0 -91 80 -91q23 0 47.5 10.5t41.5 22.5t52 39v144q-108 -5 -164.5 -33.5t-56.5 -91.5zM444 1274q0 -34 24 -58t60 -24 q35 0 57.5 24t22.5 58q0 36 -22.5 60t-57.5 24q-36 0 -60 -24t-24 -60z" />
<glyph unicode="&#xe6;" horiz-adv-x="1411" d="M53 256q0 81 40.5 141.5t112.5 96.5t159 55t192 24v56q0 52 -26.5 83t-75.5 31q-115 0 -293 -73l-58 209q108 40 191 59.5t174 19.5q158 0 244 -94q127 94 258 94q90 0 162.5 -36t116.5 -95.5t67.5 -132t23.5 -149.5q0 -44 -20 -154h-508q13 -92 55 -144t129 -52 q107 0 260 67l66 -207q-171 -80 -356 -80q-69 0 -148.5 32.5t-140.5 98.5q-191 -131 -338 -131q-123 0 -205 74t-82 207zM340 281q0 -91 80 -91q65 0 168 66q-25 71 -31 156q-217 -13 -217 -131zM807 567h268q2 81 -33 133t-98 52q-39 0 -67 -19t-42 -50.5t-20 -59t-8 -56.5 z" />
<glyph unicode="&#xe7;" horiz-adv-x="866" d="M72 463q0 230 128.5 359.5t358.5 129.5q134 0 266 -59l-67 -223q-102 57 -201 57q-89 0 -139.5 -61.5t-50.5 -180.5q0 -133 53 -206.5t158 -73.5q91 0 188 51l63 -215q-121 -54 -251 -59l-13 -78q164 -46 164 -187q0 -95 -72 -141.5t-180 -46.5q-83 0 -178 31l35 131 q71 -23 115 -23q92 0 92 62q0 74 -142 67l25 195q-173 31 -262.5 151t-89.5 320z" />
<glyph unicode="&#xe8;" horiz-adv-x="980" d="M74 459q0 81 15.5 152.5t50 135.5t86 110t127.5 72.5t171 26.5q96 0 171.5 -35.5t120.5 -95t68 -131t23 -149.5q0 -83 -12 -154h-557q30 -196 215 -196q112 0 274 67l66 -205q-178 -82 -371 -82q-103 0 -183.5 30t-129.5 77.5t-80 113t-43 129.5t-12 134zM244 1319 l239 127l213 -332l-178 -76zM340 567h319q0 81 -38.5 132t-108.5 51q-147 0 -172 -183z" />
<glyph unicode="&#xe9;" horiz-adv-x="980" d="M74 459q0 81 15.5 152.5t50 135.5t86 110t127.5 72.5t171 26.5q96 0 171.5 -35.5t120.5 -95t68 -131t23 -149.5q0 -83 -12 -154h-557q30 -196 215 -196q112 0 274 67l66 -205q-178 -82 -371 -82q-103 0 -183.5 30t-129.5 77.5t-80 113t-43 129.5t-12 134zM340 567h319 q0 81 -38.5 132t-108.5 51q-147 0 -172 -183zM360 1116l230 328l207 -131l-281 -275z" />
<glyph unicode="&#xea;" horiz-adv-x="980" d="M74 459q0 81 15.5 152.5t50 135.5t86 110t127.5 72.5t171 26.5q96 0 171.5 -35.5t120.5 -95t68 -131t23 -149.5q0 -83 -12 -154h-557q30 -196 215 -196q112 0 274 67l66 -205q-178 -82 -371 -82q-103 0 -183.5 30t-129.5 77.5t-80 113t-43 129.5t-12 134zM188 1124 l347 289l356 -274l-141 -113l-213 137l-211 -137zM340 567h319q0 81 -38.5 132t-108.5 51q-147 0 -172 -183z" />
<glyph unicode="&#xeb;" horiz-adv-x="980" d="M74 459q0 81 15.5 152.5t50 135.5t86 110t127.5 72.5t171 26.5q96 0 171.5 -35.5t120.5 -95t68 -131t23 -149.5q0 -83 -12 -154h-557q30 -196 215 -196q112 0 274 67l66 -205q-178 -82 -371 -82q-103 0 -183.5 30t-129.5 77.5t-80 113t-43 129.5t-12 134zM129 1219 q0 67 49 112t121 45q70 0 118 -46.5t48 -110.5q0 -65 -49.5 -109.5t-116.5 -44.5q-71 0 -120.5 45t-49.5 109zM340 567h319q0 81 -38.5 132t-108.5 51q-147 0 -172 -183zM606 1219q0 64 48 110.5t116 46.5q74 0 124 -46.5t50 -110.5q0 -63 -50.5 -108.5t-123.5 -45.5 q-67 0 -115.5 45.5t-48.5 108.5z" />
<glyph unicode="&#xec;" horiz-adv-x="575" d="M31 1319l239 127l213 -332l-178 -76zM141 0v934h291v-934h-291z" />
<glyph unicode="&#xed;" horiz-adv-x="575" d="M123 1116l229 328l207 -131l-280 -275zM141 0v934h291v-934h-291z" />
<glyph unicode="&#xee;" horiz-adv-x="575" d="M-47 1124l346 289l356 -274l-141 -113l-213 137l-211 -137zM141 0v934h291v-934h-291z" />
<glyph unicode="&#xef;" horiz-adv-x="575" d="M-106 1219q0 67 48.5 112t120.5 45q70 0 118 -46.5t48 -110.5q0 -65 -49.5 -109.5t-116.5 -44.5q-71 0 -120 45t-49 109zM141 0v934h291v-934h-291zM371 1219q0 64 48 110.5t116 46.5q74 0 124 -46.5t50 -110.5q0 -63 -50.5 -108.5t-123.5 -45.5q-67 0 -115.5 45.5 t-48.5 108.5z" />
<glyph unicode="&#xf0;" horiz-adv-x="1140" d="M90 381q0 99 37.5 179.5t101.5 130.5t145 78t171.5 27t177.5 -28q-28 108 -92 199l-166 -121l-103 129l154 110q-98 75 -233 117l102 219q202 -59 350 -180l176 127l97 -129l-158 -115q203 -246 203 -594q0 -123 -27.5 -222t-84.5 -174.5t-153.5 -117t-226.5 -41.5 q-218 0 -344.5 110t-126.5 296zM399 406q0 -83 48 -138t131 -55q54 0 90.5 24.5t55 70.5t25.5 95.5t7 114.5q0 10 -1 32t-1 32q-96 24 -175 17.5t-129.5 -57t-50.5 -136.5z" />
<glyph unicode="&#xf1;" horiz-adv-x="1171" d="M145 0v934h275v-100q182 122 334 122q135 0 207.5 -78t72.5 -253v-625h-289v565q0 135 -112 135q-39 0 -91.5 -25.5t-105.5 -74.5v-600h-291zM266 1188q118 112 248 112q62 0 117.5 -22.5t85.5 -22.5q71 0 145 58l107 -111q-116 -133 -250 -133q-68 0 -124 23.5t-83 23.5 q-53 0 -147 -55z" />
<glyph unicode="&#xf2;" horiz-adv-x="1097" d="M72 459q0 100 30 188.5t88 158t152.5 110t214.5 40.5t212.5 -39t147 -106t82 -150.5t27.5 -179.5q0 -144 -55.5 -257.5t-167 -181t-262.5 -67.5q-114 0 -204.5 38t-147.5 104.5t-87 153.5t-30 188zM293 1319l239 127l213 -332l-178 -76zM367 475q0 -125 48 -200.5 t136 -75.5q87 0 132.5 76t45.5 190q0 123 -44 196.5t-134 73.5q-89 0 -136.5 -69.5t-47.5 -190.5z" />
<glyph unicode="&#xf3;" horiz-adv-x="1097" d="M72 459q0 100 30 188.5t88 158t152.5 110t214.5 40.5t212.5 -39t147 -106t82 -150.5t27.5 -179.5q0 -144 -55.5 -257.5t-167 -181t-262.5 -67.5q-114 0 -204.5 38t-147.5 104.5t-87 153.5t-30 188zM367 475q0 -125 48 -200.5t136 -75.5q87 0 132.5 76t45.5 190 q0 123 -44 196.5t-134 73.5q-89 0 -136.5 -69.5t-47.5 -190.5zM385 1116l229 328l207 -131l-280 -275z" />
<glyph unicode="&#xf4;" horiz-adv-x="1097" d="M72 459q0 100 30 188.5t88 158t152.5 110t214.5 40.5t212.5 -39t147 -106t82 -150.5t27.5 -179.5q0 -144 -55.5 -257.5t-167 -181t-262.5 -67.5q-114 0 -204.5 38t-147.5 104.5t-87 153.5t-30 188zM209 1124l346 289l356 -274l-141 -113l-213 137l-211 -137zM367 475 q0 -125 48 -200.5t136 -75.5q87 0 132.5 76t45.5 190q0 123 -44 196.5t-134 73.5q-89 0 -136.5 -69.5t-47.5 -190.5z" />
<glyph unicode="&#xf5;" horiz-adv-x="1097" d="M72 459q0 100 30 188.5t88 158t152.5 110t214.5 40.5t212.5 -39t147 -106t82 -150.5t27.5 -179.5q0 -144 -55.5 -257.5t-167 -181t-262.5 -67.5q-114 0 -204.5 38t-147.5 104.5t-87 153.5t-30 188zM223 1188q118 112 248 112q62 0 117.5 -22.5t85.5 -22.5q71 0 145 58 l107 -111q-116 -133 -250 -133q-68 0 -124 23.5t-83 23.5q-53 0 -147 -55zM367 475q0 -125 48 -200.5t136 -75.5q87 0 132.5 76t45.5 190q0 123 -44 196.5t-134 73.5q-89 0 -136.5 -69.5t-47.5 -190.5z" />
<glyph unicode="&#xf6;" horiz-adv-x="1097" d="M72 459q0 100 30 188.5t88 158t152.5 110t214.5 40.5t212.5 -39t147 -106t82 -150.5t27.5 -179.5q0 -144 -55.5 -257.5t-167 -181t-262.5 -67.5q-114 0 -204.5 38t-147.5 104.5t-87 153.5t-30 188zM164 1219q0 67 49 112t121 45q70 0 118 -46.5t48 -110.5 q0 -65 -49.5 -109.5t-116.5 -44.5q-71 0 -120.5 45t-49.5 109zM367 475q0 -125 48 -200.5t136 -75.5q87 0 132.5 76t45.5 190q0 123 -44 196.5t-134 73.5q-89 0 -136.5 -69.5t-47.5 -190.5zM641 1219q0 64 48 110.5t116 46.5q74 0 124 -46.5t50 -110.5q0 -63 -50.5 -108.5 t-123.5 -45.5q-67 0 -115.5 45.5t-48.5 108.5z" />
<glyph unicode="&#xf7;" d="M111 465l831 303l76 -213l-830 -303zM266 891q0 68 50.5 117t123.5 49t122.5 -49t49.5 -117q0 -69 -51 -119.5t-121 -50.5q-72 0 -123 50.5t-51 119.5zM528 145q0 68 50.5 117t123.5 49t122.5 -49t49.5 -117q0 -69 -51 -119.5t-121 -50.5q-72 0 -123 50.5t-51 119.5z" />
<glyph unicode="&#xf8;" horiz-adv-x="1097" d="M-59 82l170 158q-39 95 -39 219q0 100 30 188.5t88 158t152.5 110t214.5 40.5q157 0 266 -67l181 164l204 -189l-213 -194q31 -91 31 -189q0 -144 -55.5 -257.5t-167 -181t-262.5 -67.5q-135 0 -248 58l-152 -139zM367 475q0 -43 2 -61l299 270q-45 51 -117 51 q-89 0 -136.5 -69.5t-47.5 -190.5zM446 236q43 -37 105 -37q87 0 132.5 76t45.5 190v24z" />
<glyph unicode="&#xf9;" horiz-adv-x="1175" d="M141 311v623h289v-584q0 -125 98 -125q92 0 211 119v590h291v-934h-256l-6 98q-107 -72 -169 -97.5t-163 -25.5q-139 0 -217 81.5t-78 254.5zM328 1319l239 127l213 -332l-178 -76z" />
<glyph unicode="&#xfa;" horiz-adv-x="1175" d="M141 311v623h289v-584q0 -125 98 -125q92 0 211 119v590h291v-934h-256l-6 98q-107 -72 -169 -97.5t-163 -25.5q-139 0 -217 81.5t-78 254.5zM412 1116l229 328l207 -131l-281 -275z" />
<glyph unicode="&#xfb;" horiz-adv-x="1175" d="M141 311v623h289v-584q0 -125 98 -125q92 0 211 119v590h291v-934h-256l-6 98q-107 -72 -169 -97.5t-163 -25.5q-139 0 -217 81.5t-78 254.5zM248 1124l346 289l356 -274l-141 -113l-213 137l-211 -137z" />
<glyph unicode="&#xfc;" horiz-adv-x="1175" d="M141 311v623h289v-584q0 -125 98 -125q92 0 211 119v590h291v-934h-256l-6 98q-107 -72 -169 -97.5t-163 -25.5q-139 0 -217 81.5t-78 254.5zM182 1219q0 67 49 112t121 45q70 0 118 -46.5t48 -110.5q0 -65 -49.5 -109.5t-116.5 -44.5q-71 0 -120.5 45t-49.5 109z M659 1219q0 64 48 110.5t116 46.5q74 0 124 -46.5t50 -110.5q0 -63 -50.5 -108.5t-123.5 -45.5q-67 0 -115.5 45.5t-48.5 108.5z" />
<glyph unicode="&#xfd;" horiz-adv-x="962" d="M-29 934h310l231 -533l178 533h301l-366 -938q-49 -125 -109 -210.5t-133 -134.5t-150 -72.5t-176 -31.5l-53 226q137 14 213.5 66t130.5 177l27 60zM342 1116l229 328l207 -131l-280 -275z" />
<glyph unicode="&#xfe;" horiz-adv-x="1128" d="M143 -453v1842h291v-465q83 34 174 34q209 0 326 -133t117 -344q0 -137 -55.5 -250.5t-168.5 -184.5t-264 -71q-42 0 -129 17v-445h-291zM434 242q63 -29 121 -29q65 0 110 41t62.5 95t17.5 112q0 110 -42.5 185t-135.5 75q-73 0 -133 -43v-436z" />
<glyph unicode="&#xff;" horiz-adv-x="962" d="M-29 934h310l231 -533l178 533h301l-366 -938q-49 -125 -109 -210.5t-133 -134.5t-150 -72.5t-176 -31.5l-53 226q137 14 213.5 66t130.5 177l27 60zM119 1219q0 67 49 112t121 45q70 0 118 -46.5t48 -110.5q0 -65 -49.5 -109.5t-116.5 -44.5q-71 0 -120.5 45t-49.5 109z M596 1219q0 64 48 110.5t116 46.5q74 0 124 -46.5t50 -110.5q0 -63 -50.5 -108.5t-123.5 -45.5q-67 0 -115.5 45.5t-48.5 108.5z" />
<glyph unicode="&#x152;" horiz-adv-x="1812" d="M47 633q0 53 6.5 107t25.5 120.5t48.5 125.5t80.5 116.5t116 98.5t160 66t208 25q43 0 149.5 -12t178.5 -12h678v-234h-561v-248h501v-233h-501v-320h600v-233h-686q-35 0 -169.5 -12.5t-187.5 -12.5q-114 0 -210 26.5t-161.5 69t-116 101.5t-80 119t-48 126t-25 117.5 t-6.5 98.5zM352 633q0 -35 2 -67.5t10.5 -76.5t22.5 -80t40 -74t60.5 -63.5t87 -42t117.5 -16.5q96 0 156 14v807q-58 19 -156 19q-84 0 -148 -30.5t-99.5 -75.5t-57.5 -105.5t-28.5 -109.5t-6.5 -99z" />
<glyph unicode="&#x153;" horiz-adv-x="1576" d="M70 469q0 34 5 73t19.5 87.5t36 93t58.5 88.5t84 76t115 51.5t149 19.5q97 0 164.5 -36t125.5 -99q118 135 289 135q97 0 173.5 -35.5t123 -95.5t70.5 -133.5t24 -154.5q0 -50 -16 -148h-535q19 -85 68 -140.5t127 -55.5q118 0 270 67l70 -205q-168 -82 -369 -82 q-179 0 -299 146q-130 -146 -299 -146q-110 0 -195 36.5t-132.5 90t-77.5 124.5t-39.5 129t-9.5 114zM373 477q0 -34 2.5 -64t12.5 -68.5t26 -66t46 -46.5t70 -19q36 0 63.5 12t43.5 35t26 46.5t14.5 57t5.5 54.5t1 51q0 254 -156 254q-155 0 -155 -246zM954 567h287 q2 85 -36 135t-107 50q-62 0 -98.5 -49t-45.5 -136z" />
<glyph unicode="&#x178;" horiz-adv-x="1048" d="M-70 1268h322l283 -574l284 574h299l-446 -846v-422h-289v408zM131 1532q0 67 49 112.5t121 45.5q70 0 118 -47t48 -111q0 -65 -49.5 -109.5t-116.5 -44.5q-71 0 -120.5 45t-49.5 109zM608 1532q0 64 48 111t116 47q74 0 124 -47t50 -111q0 -63 -50.5 -108.5 t-123.5 -45.5q-67 0 -115.5 45.5t-48.5 108.5z" />
<glyph unicode="&#x2c6;" horiz-adv-x="540" d="M-92 1124l346 289l356 -274l-141 -113l-213 137l-211 -137z" />
<glyph unicode="&#x2dc;" horiz-adv-x="661" d="M-33 1188q118 112 248 112q62 0 117.5 -22.5t85.5 -22.5q71 0 145 58l107 -111q-116 -133 -250 -133q-68 0 -124 23.5t-83 23.5q-53 0 -147 -55z" />
<glyph unicode="&#x2000;" horiz-adv-x="879" />
<glyph unicode="&#x2001;" horiz-adv-x="1759" />
<glyph unicode="&#x2002;" horiz-adv-x="879" />
<glyph unicode="&#x2003;" horiz-adv-x="1759" />
<glyph unicode="&#x2004;" horiz-adv-x="586" />
<glyph unicode="&#x2005;" horiz-adv-x="439" />
<glyph unicode="&#x2006;" horiz-adv-x="293" />
<glyph unicode="&#x2007;" horiz-adv-x="293" />
<glyph unicode="&#x2008;" horiz-adv-x="219" />
<glyph unicode="&#x2009;" horiz-adv-x="351" />
<glyph unicode="&#x200a;" horiz-adv-x="97" />
<glyph unicode="&#x2010;" horiz-adv-x="817" d="M96 430v234h625v-234h-625z" />
<glyph unicode="&#x2011;" horiz-adv-x="817" d="M96 430v234h625v-234h-625z" />
<glyph unicode="&#x2012;" horiz-adv-x="817" d="M96 430v234h625v-234h-625z" />
<glyph unicode="&#x2013;" horiz-adv-x="1216" d="M96 430v234h1022v-234h-1022z" />
<glyph unicode="&#x2014;" horiz-adv-x="1863" d="M96 430v234h1669v-234h-1669z" />
<glyph unicode="&#x2018;" horiz-adv-x="524" d="M59 1108q0 113 64 217.5t184 212.5l158 -152q-69 -74 -94 -110.5t-25 -77.5q0 -22 12 -42.5t26 -35t26 -41.5t12 -61q0 -67 -46.5 -109.5t-117.5 -42.5q-92 0 -145.5 68.5t-53.5 173.5z" />
<glyph unicode="&#x2019;" horiz-adv-x="524" d="M59 956q68 74 93.5 111t25.5 78q0 22 -12 42.5t-26 35t-26 41.5t-12 61q0 67 46.5 109.5t117.5 42.5q92 0 145.5 -68.5t53.5 -173.5q0 -113 -64 -217.5t-184 -212.5z" />
<glyph unicode="&#x201a;" horiz-adv-x="546" d="M70 -205q68 73 93 110.5t25 78.5q0 22 -11.5 42.5t-26 35t-26 41.5t-11.5 61q0 67 46 109t117 42q92 0 145.5 -68t53.5 -173q0 -113 -64 -217.5t-184 -212.5z" />
<glyph unicode="&#x201c;" horiz-adv-x="989" d="M59 1108q0 113 64 217.5t184 212.5l158 -152q-69 -74 -94 -110.5t-25 -77.5q0 -22 12 -42.5t26 -35t26 -41.5t12 -61q0 -67 -46.5 -109.5t-117.5 -42.5q-92 0 -145.5 68.5t-53.5 173.5zM524 1108q0 113 64 217.5t184 212.5l158 -152q-69 -74 -94 -110.5t-25 -77.5 q0 -22 12 -42.5t26 -35t26 -41.5t12 -61q0 -67 -46.5 -109.5t-117.5 -42.5q-92 0 -145.5 68.5t-53.5 173.5z" />
<glyph unicode="&#x201d;" horiz-adv-x="989" d="M59 956q68 74 93.5 111t25.5 78q0 22 -12 42.5t-26 35t-26 41.5t-12 61q0 67 46.5 109.5t117.5 42.5q92 0 145.5 -68.5t53.5 -173.5q0 -113 -64 -217.5t-184 -212.5zM524 956q68 74 93.5 111t25.5 78q0 22 -12 42.5t-26 35t-26 41.5t-12 61q0 67 46.5 109.5t117.5 42.5 q92 0 145.5 -68.5t53.5 -173.5q0 -113 -64 -217.5t-184 -212.5z" />
<glyph unicode="&#x201e;" horiz-adv-x="1013" d="M70 -201q68 73 93 110.5t25 78.5q0 22 -11.5 42.5t-26 35t-26 41.5t-11.5 61q0 67 46 109t117 42q92 0 145.5 -68t53.5 -173q0 -113 -64 -217.5t-184 -212.5zM535 -201q68 73 93 110.5t25 78.5q0 27 -18.5 51.5t-37.5 55t-19 73.5q0 67 46 109t117 42q92 0 145.5 -68 t53.5 -173q0 -113 -64 -217.5t-184 -212.5z" />
<glyph unicode="&#x2022;" horiz-adv-x="768" d="M-4 590q0 148 114 254t275 106q160 0 273.5 -106t113.5 -254q0 -147 -114 -253t-273 -106q-161 0 -275 106t-114 253z" />
<glyph unicode="&#x2026;" horiz-adv-x="1560" d="M113 145q0 68 50.5 117t123.5 49t122.5 -49t49.5 -117q0 -69 -51 -119.5t-121 -50.5q-72 0 -123 50.5t-51 119.5zM610 145q0 68 50.5 117t123.5 49t122.5 -49t49.5 -117q0 -69 -51 -119.5t-121 -50.5q-72 0 -123 50.5t-51 119.5zM1110 145q0 68 50.5 117t123.5 49 t122.5 -49t49.5 -117q0 -69 -51 -119.5t-121 -50.5q-72 0 -123 50.5t-51 119.5z" />
<glyph unicode="&#x202f;" horiz-adv-x="351" />
<glyph unicode="&#x2039;" horiz-adv-x="714" d="M59 471l369 408l227 -84l-241 -326l241 -317l-225 -91z" />
<glyph unicode="&#x203a;" horiz-adv-x="716" d="M59 145l260 328l-258 313l226 95l368 -410l-368 -408z" />
<glyph unicode="&#x205f;" horiz-adv-x="439" />
<glyph unicode="&#x20ac;" d="M37 389v207h127v43v41h-127v207h162q54 180 181.5 292.5t324.5 112.5q96 0 164.5 -19.5t164.5 -68.5l-71 -235q-80 50 -131 69t-121 19q-25 0 -49.5 -7t-53.5 -24t-55.5 -52.5t-44.5 -86.5h334v-207h-369v-41v-43h369v-207h-334q63 -180 211 -180q64 0 121.5 21t140.5 69 l70 -236q-85 -51 -165 -71.5t-181 -20.5q-217 0 -344.5 111.5t-172.5 306.5h-151z" />
<glyph unicode="&#x2122;" horiz-adv-x="1574" d="M-16 1219v170h649v-170h-223v-543h-203v543h-223zM610 678l62 711h186l201 -404l207 404h180l59 -711h-211l-24 344l-168 -344h-94l-174 344l-29 -344h-195z" />
<glyph unicode="&#xe000;" horiz-adv-x="931" d="M0 0v932h932v-932h-932z" />
<glyph unicode="&#xfb03;" horiz-adv-x="1832" d="M33 723v211h137v39q0 212 102 308.5t322 96.5q159 0 315 -47q102 82 285 82t399 -90l-80 -199q-169 76 -288 76q-88 0 -120 -46.5t-32 -149.5v-70h615v-934h-291v723h-324v-723h-291v723h-323v-723h-289v723h-137zM459 934h323v70q0 84 17 151q-103 21 -176 21 q-91 0 -127.5 -52t-36.5 -155v-35z" />
<glyph unicode="&#xfb04;" horiz-adv-x="1828" d="M37 723v211h133v39q0 212 102 308.5t322 96.5q168 0 317 -47q100 78 279 78q138 0 254.5 -34t243.5 -95v-1280h-291v1169q-96 27 -174 27q-88 0 -119 -43t-31 -137v-82h178v-211h-178v-723h-291v723h-323v-723h-289v723h-133zM459 934h323v82q0 78 17 139 q-103 21 -176 21q-91 0 -127.5 -52t-36.5 -155v-35z" />
</font>
</defs>
</svg>
