<?xml version="1.0" standalone="no"?>
<!DOCTYPE svg PUBLIC "-//W3C//DTD SVG 1.1//EN" "http://www.w3.org/Graphics/SVG/1.1/DTD/svg11.dtd" >
<svg xmlns="http://www.w3.org/2000/svg">
<metadata></metadata>
<defs>
<font id="graublau_sansregular" horiz-adv-x="1359" >
<font-face units-per-em="2048" ascent="1638" descent="-410" />
<missing-glyph horiz-adv-x="526" />
<glyph unicode="&#xfb01;" horiz-adv-x="1114" d="M55 811v109h140v151q0 340 344 340q160 0 323 -72l-39 -106q-60 27 -137 46t-139 19q-117 0 -162 -56.5t-45 -170.5v-151h578v-920h-146v811h-432v-811h-145v811h-140z" />
<glyph unicode="&#xfb02;" horiz-adv-x="1122" d="M57 811v109h138v84q0 204 78 300.5t262 96.5q120 0 210 -24t181 -68v-1309h-146v1247q-100 41 -237 41q-118 0 -160.5 -69t-42.5 -220v-79h262v-109h-262v-811h-145v811h-138z" />
<glyph horiz-adv-x="2048" />
<glyph horiz-adv-x="2048" />
<glyph unicode="&#xd;" horiz-adv-x="2048" />
<glyph unicode=" "  horiz-adv-x="526" />
<glyph unicode="&#x09;" horiz-adv-x="526" />
<glyph unicode="&#xa0;" horiz-adv-x="526" />
<glyph unicode="!" horiz-adv-x="565" d="M240 78q0 42 31 71t73 29q44 0 73 -28.5t29 -71.5q0 -44 -29.5 -73.5t-72.5 -29.5q-44 0 -74 29.5t-30 73.5zM260 1262h166l-14 -887h-136z" />
<glyph unicode="&#x22;" horiz-adv-x="747" d="M129 1280v174h156v-172l-23 -285h-115zM463 1280v174h155v-172l-22 -285h-115z" />
<glyph unicode="#" horiz-adv-x="1148" d="M78 733v121h219v416h139v-416h277v416h139v-416h215v-119h-215v-352h215v-121h-215v-428h-139v428h-277v-428h-139v428h-217v121h217v350h-219zM436 383h277v352h-277v-352z" />
<glyph unicode="$" horiz-adv-x="1015" d="M86 59l45 136q157 -77 283 -91l28 508q-56 27 -93 48t-82.5 55t-72 69t-45 85.5t-18.5 109.5q0 76 28 134.5t77 94t110.5 54.5t134.5 22l11 184h116l-12 -190q109 -13 225 -51l-37 -125q-96 40 -194 53l-27 -444q43 -21 71 -35.5t67 -38.5t64.5 -45.5t53.5 -52 t44.5 -62.5t27 -73.5t10.5 -88.5q0 -84 -32 -148t-87 -102t-119.5 -58.5t-140.5 -26.5l-12 -213h-115l13 213q-167 14 -322 79zM276 985q0 -71 46 -121.5t131 -95.5l20 391q-90 -8 -143.5 -51.5t-53.5 -122.5zM528 102q98 10 161 63.5t63 145.5q0 82 -51.5 138.5 t-145.5 105.5z" />
<glyph unicode="%" horiz-adv-x="1353" d="M113 932q0 28 6.5 58t25.5 65t47 62.5t76 46t109 18.5q134 0 201 -71.5t67 -178.5q0 -40 -14.5 -81t-43.5 -80t-84 -64t-126 -25q-69 0 -122 24t-83 62.5t-44.5 80t-14.5 83.5zM160 41l936 1126l94 -90l-934 -1124zM250 932q0 -57 32.5 -97t94.5 -40q67 0 99 41t32 96 q0 63 -35.5 100t-95.5 37q-65 0 -96 -42.5t-31 -94.5zM721 193q0 28 6.5 57.5t25 64.5t46.5 62t76.5 45t109.5 18q134 0 201 -70.5t67 -176.5q0 -40 -14.5 -81.5t-44 -80.5t-84 -63.5t-125.5 -24.5q-69 0 -122 23.5t-83 62t-44.5 80.5t-14.5 84zM858 193q0 -57 32.5 -97.5 t94.5 -40.5q66 0 98.5 41.5t32.5 96.5q0 61 -36 99t-95 38q-65 0 -96 -42.5t-31 -94.5z" />
<glyph unicode="&#x26;" horiz-adv-x="1273" d="M160 244q0 111 64 199.5t175 170.5q-90 76 -132 144t-42 155q0 128 94.5 204.5t260.5 76.5q154 0 247 -63.5t93 -167.5q0 -36 -10.5 -70t-35 -66.5t-46.5 -57t-64 -57t-67.5 -50.5t-75.5 -52q220 -177 333 -279q123 -112 238 -235l-86 -104q-88 98 -162 166 q-105 -92 -203.5 -139.5t-236.5 -47.5q-169 0 -256.5 73t-87.5 200zM313 260q0 -81 55 -126.5t152 -45.5q163 0 336 154q-32 30 -67.5 60t-61 51.5t-63 51.5t-54.5 43t-56.5 44t-49.5 38q-91 -67 -141 -131t-50 -139zM379 907q0 -53 34 -103t105 -110q135 90 177 129 q69 64 69 125q0 34 -19.5 60t-50.5 40t-62.5 21t-62.5 8q-89 1 -139.5 -48.5t-50.5 -121.5z" />
<glyph unicode="'" horiz-adv-x="413" d="M129 1280v174h156v-172l-23 -285h-115z" />
<glyph unicode="(" horiz-adv-x="579" d="M147 569q0 129 21 248t50.5 205t80.5 178t89 147.5t99 135.5l103 -68q-299 -388 -299 -844q0 -123 21.5 -242t52.5 -207.5t74.5 -172t79 -135t73.5 -97.5l-107 -67q-338 397 -338 919z" />
<glyph unicode=")" horiz-adv-x="565" d="M-12 1417l108 66q56 -78 96 -140.5t85.5 -153.5t74 -178.5t47.5 -202.5t19 -239q0 -125 -19 -239t-45.5 -198.5t-74.5 -178t-86.5 -154t-100.5 -149.5l-102 67q69 101 113.5 179t88 183t64 225.5t20.5 262.5q0 94 -10 178.5t-32.5 162t-44 136.5t-61 132.5t-65.5 118 t-75 122.5z" />
<glyph unicode="*" horiz-adv-x="1052" d="M160 567l45 142l309 -121l-25 332h148l-21 -334l310 127l45 -140l-324 -86l217 -251l-119 -89l-180 281l-176 -283l-119 86l211 258z" />
<glyph unicode="+" horiz-adv-x="1052" d="M117 424v123h342v342h135v-342h340v-123h-340v-361h-135v361h-342z" />
<glyph unicode="," horiz-adv-x="475" d="M115 -199q94 98 94 181q0 34 -24.5 69t-24.5 68q0 35 24 57.5t64 22.5q51 0 84 -45.5t33 -118.5q0 -155 -164 -316z" />
<glyph unicode="-" horiz-adv-x="813" d="M133 496v122h541v-122h-541z" />
<glyph unicode="." horiz-adv-x="475" d="M152 78q0 42 31 71t73 29q44 0 73 -28.5t29 -71.5q0 -44 -29.5 -73.5t-72.5 -29.5q-44 0 -74 29.5t-30 73.5z" />
<glyph unicode="/" horiz-adv-x="710" d="M55 -150l512 1547l133 -41l-514 -1549z" />
<glyph unicode="0" horiz-adv-x="1150" d="M117 451q0 67 14 132.5t48.5 132t86.5 116t135 81t187 31.5q105 0 186.5 -31.5t129.5 -79.5t79 -113.5t42 -126t11 -124.5q0 -68 -13.5 -133t-47.5 -131.5t-86 -116.5t-135.5 -81.5t-188.5 -31.5q-89 0 -161.5 22t-120 60.5t-81.5 85t-51.5 102.5t-25.5 105.5t-8 100.5z M268 461q0 -45 7 -90t28 -96.5t53.5 -89.5t88.5 -63.5t128 -25.5q69 0 124 23t89.5 59t57.5 84.5t32 96t9 96.5t-8.5 97t-30.5 98.5t-55 88.5t-88 62t-125 24q-66 0 -120.5 -23t-89 -60.5t-57.5 -86t-33 -97t-10 -97.5z" />
<glyph unicode="1" horiz-adv-x="692" d="M47 719l338 217h117v-936h-146v756l-258 -140z" />
<glyph unicode="2" horiz-adv-x="919" d="M74 0v92q87 62 145.5 106t138.5 112t128.5 121t84 115t35.5 113q0 75 -53 121.5t-152 46.5q-117 0 -260 -69l-39 110q158 76 312 76q171 0 256.5 -77t85.5 -199q0 -41 -14 -83.5t-32 -77.5t-54.5 -78t-61.5 -70t-74 -69.5t-71.5 -60.5t-74.5 -58.5t-63 -49.5h506v-121 h-743z" />
<glyph unicode="3" horiz-adv-x="886" d="M66 901q133 43 290 43q170 0 268.5 -70t98.5 -206q0 -89 -54 -159.5t-151 -115.5q124 -21 194 -106.5t70 -204.5q0 -206 -163 -326.5t-426 -120.5q-62 0 -123 7v125q75 -7 129 -7q182 0 305 85t123 229q0 116 -88.5 179t-280.5 52l-86 -6l-8 109l88 6q142 11 228.5 75.5 t86.5 165.5q0 81 -59.5 125.5t-175.5 44.5q-120 0 -234 -41z" />
<glyph unicode="4" horiz-adv-x="921" d="M41 96l379 824h141l-360 -799h387l12 387h125v-387h158v-121h-158v-360h-137v360h-518z" />
<glyph unicode="5" horiz-adv-x="901" d="M113 -233q48 -7 108 -7q194 0 314 93.5t120 248.5q0 121 -78.5 192t-224.5 71q-70 0 -198 -27l34 582h568v-117h-445l-16 -334q59 6 102 6q185 0 298.5 -93.5t113.5 -272.5q0 -225 -159 -349.5t-423 -124.5q-66 0 -114 7v125z" />
<glyph unicode="6" horiz-adv-x="1095" d="M143 487q0 379 157 585t484 206q59 0 109 -4v-125q-52 6 -98 6q-217 0 -336.5 -111t-153.5 -344q140 68 279 68q186 0 285.5 -102t99.5 -273q0 -185 -113 -301.5t-307 -116.5q-97 0 -171 33.5t-117.5 85t-71 122t-37 135.5t-9.5 136zM293 487q0 -53 5 -100t21.5 -102.5 t44 -95t76.5 -66.5t115 -27q122 0 190 83t68 206q0 126 -63.5 197t-194.5 71q-108 0 -260 -75q-2 -29 -2 -91z" />
<glyph unicode="7" horiz-adv-x="774" d="M6 801v119h713l12 -86l-477 -1174h-156l469 1141h-561z" />
<glyph unicode="8" horiz-adv-x="1036" d="M104 299q0 69 23.5 128.5t66 105t82.5 76.5t91 61q-100 62 -155.5 133.5t-55.5 173.5q0 143 105 225t259 82q96 0 178.5 -32.5t135.5 -101t53 -159.5q0 -105 -63.5 -189t-159.5 -143q60 -32 102 -61.5t83 -71.5t62 -97.5t21 -123.5q0 -84 -32.5 -148.5t-90 -103.5 t-130.5 -58.5t-159 -19.5q-182 0 -299 84t-117 240zM254 317q0 -99 72.5 -161t191.5 -62q118 0 192 56.5t74 152.5q0 52 -22.5 95t-70 80.5t-89 62t-111.5 61.5q-11 5 -16 8q-103 -63 -162 -132t-59 -161zM303 979q0 -47 18 -86t55 -70.5t73.5 -53.5t93.5 -50 q79 44 136.5 111t57.5 147q0 84 -64.5 137t-160.5 53q-92 0 -150.5 -51.5t-58.5 -136.5z" />
<glyph unicode="9" horiz-adv-x="1095" d="M125 545q0 177 113.5 289t310.5 112q94 0 167.5 -31t116.5 -79.5t71 -115t38 -130t10 -131.5q0 -153 -20.5 -276t-67.5 -225.5t-119 -171.5t-178 -106.5t-243 -37.5q-61 0 -115 4v127q39 -6 115 -6q207 0 321 120.5t141 335.5q-55 -25 -80.5 -35t-77.5 -23t-100 -13 q-189 0 -296 107.5t-107 285.5zM279 553q0 -126 70.5 -206.5t197.5 -80.5q52 0 105.5 14.5t74 24t70.5 35.5q4 37 4 111q0 48 -6 94t-23.5 98t-45.5 90.5t-77 64t-112 25.5q-120 0 -189 -78.5t-69 -191.5z" />
<glyph unicode=":" horiz-adv-x="559" d="M186 78q0 42 31.5 71t73.5 29q44 0 73 -28.5t29 -71.5q0 -44 -29.5 -73.5t-72.5 -29.5q-44 0 -74.5 29.5t-30.5 73.5zM186 844q0 42 31.5 71t73.5 29q44 0 73 -28.5t29 -71.5q0 -44 -29.5 -73.5t-72.5 -29.5q-44 0 -74.5 29.5t-30.5 73.5z" />
<glyph unicode=";" horiz-adv-x="559" d="M162 -199q94 98 94 181q0 34 -24.5 69t-24.5 68q0 35 24 57.5t64 22.5q51 0 84 -45.5t33 -118.5q0 -155 -164 -316zM186 844q0 42 31.5 71t73.5 29q44 0 73 -28.5t29 -71.5q0 -44 -29.5 -73.5t-72.5 -29.5q-44 0 -74.5 29.5t-30.5 73.5z" />
<glyph unicode="&#x3c;" horiz-adv-x="987" d="M166 487l567 488l80 -92l-465 -396l465 -393l-76 -96z" />
<glyph unicode="=" horiz-adv-x="1052" d="M117 260v123h817v-123h-817zM117 592v123h817v-123h-817z" />
<glyph unicode="&#x3e;" horiz-adv-x="1052" d="M201 885l86 90l565 -488l-569 -489l-76 96l457 393z" />
<glyph unicode="?" horiz-adv-x="851" d="M133 1169q158 88 301 88q89 0 153 -20.5t99 -57t50.5 -79.5t15.5 -96q0 -63 -28 -119.5t-68 -100.5t-80.5 -89t-68.5 -105t-28 -129v-92h-145v100q0 81 27.5 148t66.5 112.5t78 85t66.5 83.5t27.5 91q0 150 -176 150q-114 0 -256 -84zM307 78q0 42 31.5 71t73.5 29 q44 0 73 -28.5t29 -71.5q0 -44 -29.5 -73.5t-72.5 -29.5q-44 0 -74.5 29.5t-30.5 73.5z" />
<glyph unicode="@" horiz-adv-x="1802" d="M143 395q0 183 58.5 337t163 260.5t252.5 165.5t323 59q171 0 309.5 -54t227.5 -149t136.5 -220t47.5 -270q0 -113 -19.5 -207.5t-60.5 -171t-112 -120t-166 -43.5q-150 0 -185 145q-38 -62 -112 -104.5t-156 -42.5q-66 0 -120 22t-90.5 58.5t-62 87t-36.5 105.5t-11 114 q0 137 55.5 255.5t156.5 190.5t225 72q107 0 258 -86v-502q0 -207 96 -207q101 0 152 114.5t51 313.5q0 118 -36 222t-106 185.5t-184 129t-260 47.5q-192 0 -341 -85t-233.5 -245t-84.5 -371q0 -103 23 -197t74 -178t125 -145t182.5 -97t240.5 -36q205 0 354 55l37 -110 q-200 -62 -393 -62t-344.5 62t-245 168.5t-141.5 242.5t-48 291zM672 379q0 -111 55 -198t145 -87q73 0 134.5 50.5t83.5 123.5v471q-51 33 -123 33q-125 0 -210 -115t-85 -278z" />
<glyph unicode="A" horiz-adv-x="1085" d="M-8 0l471 1262h145l486 -1262h-164l-146 383h-501l-140 -383h-151zM324 502h417l-211 598z" />
<glyph unicode="B" horiz-adv-x="1124" d="M223 0v1262h305q439 0 439 -314q0 -109 -54.5 -178t-144.5 -90q123 -19 197.5 -107.5t74.5 -212.5q0 -103 -32 -173.5t-97.5 -111t-154 -58t-213.5 -17.5h-320zM369 119h186q157 0 244.5 55.5t87.5 185.5q0 69 -31 119t-84.5 76t-114 37.5t-131.5 11.5h-157v-485z M369 717h133q91 0 154 16.5t96.5 48t47 68.5t13.5 86q0 207 -289 207h-155v-426z" />
<glyph unicode="C" horiz-adv-x="999" d="M106 659q0 90 18.5 176.5t60.5 169t103.5 143.5t154.5 98.5t206 37.5q108 0 171.5 -14.5t152.5 -52.5l-31 -125q-74 38 -141 53.5t-152 15.5t-152.5 -29.5t-111 -77.5t-72.5 -113.5t-41 -133.5t-12 -141q0 -82 9 -154t35 -150t67.5 -133t113.5 -91t166 -36q146 0 297 74 l37 -121q-79 -37 -157 -56t-187 -19q-92 0 -168.5 22t-131 59.5t-96.5 91t-68 112t-42.5 128t-22.5 133.5t-6 133z" />
<glyph unicode="D" horiz-adv-x="1314" d="M223 0v1262h365q105 0 193 -21t150 -56t110.5 -85t78.5 -104t49 -117.5t26 -120.5t7 -117q0 -65 -6.5 -124.5t-25 -125.5t-48 -121t-77.5 -106t-111.5 -86.5t-153 -56.5t-198.5 -21h-359zM369 121h229q80 0 146 17t112 45t81 69.5t56 85t34 96.5t17.5 100t4.5 99 q0 72 -11 137t-43 135t-83 120.5t-138.5 83t-202.5 32.5h-202v-1020z" />
<glyph unicode="E" horiz-adv-x="1085" d="M223 0v1262h740v-121h-594v-424h534v-121h-534v-475h632v-121h-778z" />
<glyph unicode="F" horiz-adv-x="942" d="M223 0v1262h715v-121h-569v-465h495v-119h-495v-557h-146z" />
<glyph unicode="G" horiz-adv-x="1290" d="M127 606q0 103 20 197.5t66.5 183.5t115.5 154t175.5 104t238.5 39q192 0 383 -84l-45 -119q-176 80 -338 80q-105 0 -186.5 -32t-132 -84t-83.5 -124.5t-45.5 -146.5t-12.5 -158q0 -149 46.5 -263.5t146 -183.5t241.5 -69q85 0 142 11.5t136 44.5v415h140v-487 q-112 -57 -208.5 -82t-219.5 -25q-121 0 -219 33.5t-164.5 91.5t-111.5 138.5t-65 171.5t-20 194z" />
<glyph unicode="H" horiz-adv-x="1394" d="M223 0v1262h148v-539h653v539h147v-1262h-147v602h-653v-602h-148z" />
<glyph unicode="I" horiz-adv-x="575" d="M215 0v1262h145v-1262h-145z" />
<glyph unicode="J" horiz-adv-x="694" d="M14 76q74 20 120 38t90 48.5t67 72.5t37 106t14 153v768h145v-773q0 -66 -6.5 -121.5t-17 -100t-30 -81t-40 -64.5t-51.5 -51.5t-60.5 -39.5t-72 -31.5t-80 -26.5t-90.5 -24z" />
<glyph unicode="K" horiz-adv-x="1144" d="M223 0v1262h146v-637l542 637h191l-475 -531l544 -731h-200l-436 633l-166 -189v-444h-146z" />
<glyph unicode="L" horiz-adv-x="991" d="M223 0v1262h146v-1135h598v-127h-744z" />
<glyph unicode="M" horiz-adv-x="1609" d="M152 0l88 1262h145l422 -1008l422 1008h141l88 -1262h-145l-66 991l-411 -991h-68l-412 983l-71 -983h-133z" />
<glyph unicode="N" horiz-adv-x="1462" d="M223 0v1262h113l762 -994v994h139v-1262h-104l-768 1006v-1006h-142z" />
<glyph unicode="O" d="M109 606q0 80 12.5 156.5t39.5 154.5t73.5 143t108.5 116t152 79.5t197 28.5q123 0 220.5 -37.5t160 -99t103.5 -145t58 -169.5t17 -178q0 -104 -17 -197t-59.5 -183t-107.5 -154.5t-167.5 -104t-233.5 -39.5q-92 0 -169.5 20t-133.5 54.5t-100.5 83.5t-73 103.5t-47 118 t-26 124.5t-7.5 125zM260 612q0 -78 11.5 -148t41 -138.5t75 -118t118 -79.5t164.5 -30q94 0 169 31t123 82.5t79.5 123.5t45 149t13.5 163q0 74 -11 142.5t-40.5 138.5t-74.5 120.5t-119 82.5t-169 32q-98 0 -175 -35t-123 -90.5t-76 -130.5t-41 -146.5t-11 -148.5z" />
<glyph unicode="P" horiz-adv-x="1050" d="M223 0v1262h297q226 0 348.5 -107t122.5 -285q0 -171 -115 -269.5t-335 -98.5q-122 0 -172 14v-516h-146zM369 635q64 -14 157 -14q160 0 235 67t75 184q0 123 -80.5 196t-255.5 73h-131v-506z" />
<glyph unicode="Q" d="M109 606q0 80 12.5 156.5t39.5 154.5t73.5 143t108.5 116t152 79.5t197 28.5q123 0 220.5 -37.5t160 -99t103.5 -145t58 -169.5t17 -178q0 -84 -11.5 -162t-39 -155.5t-69 -140t-106 -112.5t-146.5 -77q138 -37 322.5 -94t284 -86t229.5 -52.5t247 -23.5q81 0 270 17 l-4 -113q-156 -16 -282 -16q-142 0 -308 33t-297 75.5t-351 114.5t-380 117q-114 8 -203.5 50t-144 103.5t-90.5 143t-49.5 162t-13.5 167.5zM260 612q0 -78 11.5 -148t41 -138.5t75 -118t118 -79.5t164.5 -30q94 0 169 31t123 82.5t79.5 123.5t45 149t13.5 163 q0 74 -11 142.5t-40.5 138.5t-74.5 120.5t-119 82.5t-169 32q-98 0 -175 -35t-123 -90.5t-76 -130.5t-41 -146.5t-11 -148.5z" />
<glyph unicode="R" horiz-adv-x="1140" d="M223 0v1262h285q256 0 382 -89t126 -255q0 -132 -75 -220t-208 -131l350 -567h-180l-309 535q-96 -13 -190 -13h-35v-522h-146zM369 641h29q84 0 156 10q84 12 155 42t111 86t40 134q0 228 -345 228h-9l-137 -2v-498z" />
<glyph unicode="S" horiz-adv-x="966" d="M72 59l45 136q195 -95 352 -95q115 0 191.5 54.5t76.5 156.5q0 51 -21 93t-57 73t-82.5 58.5t-98 52.5t-103 51t-98 58.5t-82.5 71t-57 92.5t-21 118q0 79 31 139.5t84.5 95.5t120 52.5t143.5 17.5q137 0 311 -57l-37 -125q-137 59 -272 59q-106 0 -171 -44.5t-65 -131.5 q0 -59 34.5 -106.5t89.5 -80.5t121.5 -65t133.5 -68.5t122 -81t89.5 -113.5t34.5 -155q0 -91 -37.5 -159t-101 -105.5t-137 -55.5t-156.5 -18q-185 0 -383 82z" />
<glyph unicode="T" horiz-adv-x="923" d="M-45 1139v123h1014v-123h-437v-1139h-145v1139h-432z" />
<glyph unicode="U" d="M211 438v824h145v-793q0 -76 17 -138.5t53.5 -114.5t101.5 -81t154 -29q90 0 156 31.5t101 86t51 116t16 133.5v789h143v-820q0 -70 -15.5 -134.5t-51.5 -125.5t-90 -106t-137 -72t-187 -27q-102 0 -182.5 27t-131 71t-83.5 105.5t-46.5 124.5t-13.5 133z" />
<glyph unicode="V" horiz-adv-x="1069" d="M-18 1262h161l398 -1006l393 1006h156l-510 -1262h-88z" />
<glyph unicode="W" horiz-adv-x="1617" d="M47 1262h156l200 -1000l355 1000h112l359 -1000l198 1000h144l-275 -1262h-106l-383 1024l-381 -1024h-107z" />
<glyph unicode="X" horiz-adv-x="1011" d="M-20 0l421 670l-385 592h183l319 -488l299 488h172l-387 -605l428 -657h-182l-354 549l-344 -549h-170z" />
<glyph unicode="Y" horiz-adv-x="940" d="M-31 1262h164l342 -705l342 705h154l-428 -848v-414h-146v410z" />
<glyph unicode="Z" horiz-adv-x="950" d="M4 102l741 1039h-677v121h843l21 -95l-742 -1046h750v-121h-920z" />
<glyph unicode="[" horiz-adv-x="663" d="M205 -225v1710h389v-113h-260v-1485h260v-112h-389z" />
<glyph unicode="\" horiz-adv-x="606" d="M-49 1360l135 43l514 -1553l-133 -43z" />
<glyph unicode="]" horiz-adv-x="663" d="M68 -113h260v1485h-260v113h391v-1710h-391v112z" />
<glyph unicode="^" horiz-adv-x="1015" d="M29 526l401 774h148l403 -774h-166l-311 611l-309 -611h-166z" />
<glyph unicode="_" horiz-adv-x="942" d="M43 -23h850v-110h-850v110z" />
<glyph unicode="`" horiz-adv-x="292" d="M-45 1284l139 70l195 -267l-101 -47z" />
<glyph unicode="a" horiz-adv-x="952" d="M94 236q0 294 539 301v90q0 202 -160 202q-124 0 -289 -77l-32 112q187 78 329 78q87 0 147.5 -26t91.5 -73t43.5 -99.5t12.5 -118.5v-346q0 -135 19 -279h-129q-14 92 -15 106q-6 -4 -29.5 -22t-32 -24t-31 -21t-35 -21t-35 -16.5t-40.5 -15t-41 -8t-47 -3.5 q-51 0 -96.5 15t-84.5 44.5t-62 81.5t-23 120zM242 248q0 -75 41.5 -116.5t111.5 -41.5q99 0 238 121v229q-192 -2 -291.5 -47.5t-99.5 -144.5z" />
<glyph unicode="b" horiz-adv-x="1071" d="M184 72v1314h146v-501q58 31 107 45t118 14q81 0 148 -25.5t113 -69.5t77.5 -105t46 -129.5t14.5 -145.5q0 -68 -13.5 -135t-45.5 -132.5t-79.5 -115t-121 -80.5t-164.5 -31q-167 0 -346 97zM330 145q89 -49 200 -49q76 0 132.5 37.5t85.5 96t42 116.5t13 113 q0 72 -15.5 135t-47 115.5t-87.5 83t-131 30.5q-102 0 -192 -63v-615z" />
<glyph unicode="c" horiz-adv-x="835" d="M111 461q0 228 115 352.5t313 124.5q130 0 247 -53l-36 -121q-103 57 -213 57q-128 0 -202.5 -89t-74.5 -259q0 -175 74.5 -274t210.5 -99q103 0 211 54l35 -115q-121 -55 -261 -55q-202 0 -310.5 124t-108.5 353z" />
<glyph unicode="d" horiz-adv-x="1079" d="M115 459q0 73 16 141.5t51 131t86 109.5t126 75t165 28q94 0 184 -39v481h146v-1359q-193 -52 -334 -52q-100 0 -178 27t-126.5 72t-80 109t-43.5 131t-12 145zM266 463q0 -71 13.5 -131.5t45.5 -116.5t94.5 -88.5t151.5 -32.5q84 0 172 31v647q-87 51 -188 51 q-73 0 -130.5 -31.5t-91 -84t-50.5 -114.5t-17 -130z" />
<glyph unicode="e" horiz-adv-x="978" d="M113 457q0 221 107.5 353t299.5 132q93 0 162 -31.5t109.5 -88t59.5 -126.5t19 -155q0 -57 -6 -88h-614q2 -163 71.5 -261t219.5 -98q126 0 270 78l37 -113q-83 -42 -156.5 -62t-167.5 -20t-167 28t-118 73.5t-74 109.5t-40.5 129.5t-11.5 139.5zM256 553h481 q0 129 -53 203.5t-170 74.5q-104 0 -172.5 -73.5t-85.5 -204.5z" />
<glyph unicode="f" horiz-adv-x="559" d="M57 811v109h138v149q0 342 317 342q110 0 227 -37l-32 -110q-82 32 -181 32q-106 0 -146 -56t-40 -171v-149h254v-109h-254v-811h-145v811h-138z" />
<glyph unicode="g" horiz-adv-x="940" d="M74 -238q0 47 15 90.5t45 82.5t56.5 66t65.5 62q-51 51 -51 138q0 48 16 81.5t49 71.5q-137 83 -137 264q0 151 93.5 238.5t244.5 87.5q79 0 156 -31q160 198 274 222l33 -119q-55 -11 -114 -53t-105 -107q96 -87 96 -238q0 -149 -94 -231t-244 -82q-55 0 -96 8 q-37 -46 -37 -98q0 -42 31 -71t80 -46.5t109 -33t119.5 -36t108.5 -49t80 -80t31 -120.5q0 -61 -26.5 -109.5t-68.5 -78t-100 -49t-116 -27t-121 -7.5q-176 0 -284.5 66t-108.5 188zM201 -221q0 -79 70 -122.5t200 -43.5q79 0 139.5 14t102 51t41.5 95q0 45 -25.5 77.5 t-72.5 52t-95.5 33t-111.5 31t-103 35.5q-72 -60 -108.5 -113t-36.5 -110zM268 623q0 -97 54 -151t149 -54q91 0 148 51.5t57 151.5q0 101 -57 158t-150 57q-96 0 -148.5 -58t-52.5 -155z" />
<glyph unicode="h" horiz-adv-x="1130" d="M190 0v1386h146v-587q190 143 350 143q128 0 196 -74.5t68 -240.5v-627h-145v606q0 103 -40.5 155t-129.5 52q-136 0 -299 -145v-668h-146z" />
<glyph unicode="i" horiz-adv-x="526" d="M164 1217q0 41 29.5 69.5t70.5 28.5q42 0 71.5 -28.5t29.5 -69.5t-29 -69t-72 -28t-71.5 28t-28.5 69zM190 0v920h146v-920h-146z" />
<glyph unicode="j" horiz-adv-x="526" d="M-68 -279q74 16 117.5 33.5t78 50t48.5 83t14 128.5v904h146v-895q0 -101 -16 -167.5t-58 -118.5t-114 -84t-187 -54zM162 1217q0 41 29.5 69.5t70.5 28.5t70.5 -28.5t29.5 -69.5t-28.5 -69t-71.5 -28t-71.5 28t-28.5 69z" />
<glyph unicode="k" horiz-adv-x="956" d="M190 0v1386h146v-923l403 457h179l-359 -396l393 -524h-178l-307 424l-131 -143v-281h-146z" />
<glyph unicode="l" horiz-adv-x="538" d="M197 0v1386h147v-1386h-147z" />
<glyph unicode="m" horiz-adv-x="1703" d="M193 0v920h137v-127q189 149 348 149q185 0 240 -158q107 85 193.5 121.5t168.5 36.5q125 0 191.5 -74.5t66.5 -240.5v-627h-147v606q0 207 -166 207q-131 0 -289 -145q2 -12 2 -39v-629h-147v606q0 103 -39.5 155t-126.5 52q-130 0 -287 -145v-668h-145z" />
<glyph unicode="n" horiz-adv-x="1132" d="M193 0v920h137v-127q192 149 356 149q129 0 197.5 -74t68.5 -241v-627h-147v606q0 103 -40.5 155t-129.5 52q-134 0 -297 -145v-668h-145z" />
<glyph unicode="o" horiz-adv-x="1062" d="M111 453q0 138 47.5 247t146.5 175.5t236 66.5q87 0 157 -25.5t116.5 -69.5t77.5 -104.5t44.5 -127t13.5 -140.5q0 -104 -26 -193t-77 -158t-133.5 -108t-187.5 -39q-136 0 -231.5 64.5t-139.5 170t-44 241.5zM262 457q0 -163 69 -263t199 -100q89 0 152 53t91 135.5 t28 186.5q0 160 -67 258t-197 98q-132 0 -203.5 -101t-71.5 -267z" />
<glyph unicode="p" horiz-adv-x="1056" d="M184 -465v1362q184 47 328 47q97 0 174.5 -30t125 -78.5t78.5 -114t43.5 -130.5t12.5 -134q0 -67 -13.5 -132t-46.5 -129.5t-81.5 -112.5t-125 -78t-171.5 -30q-92 0 -178 39v-479h-146zM330 147q84 -51 180 -51q60 0 108.5 20.5t80.5 54.5t53.5 80t31 96t9.5 104 q0 49 -7.5 97t-28 99.5t-52.5 89.5t-86 63t-123 25q-84 0 -166 -30v-648z" />
<glyph unicode="q" horiz-adv-x="1060" d="M115 451q0 68 13.5 135t45.5 132.5t78.5 115t118.5 80t161 30.5q157 0 338 -94v-1315h-145v496q-56 -29 -101.5 -42.5t-103.5 -13.5q-103 0 -182 38t-127 104.5t-72 150.5t-24 183zM268 463q0 -74 15.5 -138t47.5 -116.5t85.5 -82.5t124.5 -30q96 0 184 66v614 q-82 47 -193 47q-59 0 -106.5 -25t-76 -63.5t-47.5 -88.5t-26.5 -95t-7.5 -88z" />
<glyph unicode="r" horiz-adv-x="778" d="M199 0v920h145v-189q29 46 56 80t63 66.5t80 49.5t94 17q87 0 141 -39l-37 -127q-45 29 -110 29q-154 0 -287 -254v-553h-145z" />
<glyph unicode="s" horiz-adv-x="786" d="M76 33l39 119q143 -64 260 -64q93 0 144.5 36t51.5 105q0 46 -25.5 81t-66 57.5t-89.5 42.5t-98 43t-89.5 52.5t-66 77.5t-25.5 111q0 122 91.5 186t231.5 64q102 0 242 -39l-31 -114q-110 43 -203 43q-90 0 -139 -35t-49 -101q0 -43 25.5 -75.5t66 -53.5t89.5 -40 t98.5 -42.5t90 -54t66 -81.5t25.5 -118q0 -68 -26 -118.5t-72 -80.5t-104.5 -44.5t-129.5 -14.5q-142 0 -307 58z" />
<glyph unicode="t" horiz-adv-x="645" d="M51 811v109h144v305l143 37v-342h266v-109h-266v-530q0 -91 37 -137t119 -46q55 0 143 27l22 -119q-85 -29 -186 -29q-145 0 -211.5 73.5t-66.5 223.5v537h-144z" />
<glyph unicode="u" horiz-adv-x="1132" d="M180 293v627h148v-615q0 -104 38.5 -153.5t116.5 -49.5q80 0 154.5 39t157.5 115v664h145v-920h-131v125q-106 -80 -180 -115t-178 -35q-131 0 -201 74t-70 244z" />
<glyph unicode="v" horiz-adv-x="931" d="M25 920h163l283 -752l277 752h159l-381 -920h-118z" />
<glyph unicode="w" horiz-adv-x="1402" d="M53 920h148l190 -699l266 699h99l270 -697l180 697h144l-265 -920h-98l-285 721l-280 -721h-98z" />
<glyph unicode="x" horiz-adv-x="831" d="M2 0l326 465l-310 455h172l228 -357l235 357h160l-313 -453l329 -467h-174l-245 367l-248 -367h-160z" />
<glyph unicode="y" horiz-adv-x="886" d="M0 -317q148 5 234 61t137 197l28 82l-393 897h160l303 -732l252 732h149l-362 -998q-68 -185 -181 -270t-304 -88z" />
<glyph unicode="z" horiz-adv-x="866" d="M68 90l542 717h-512v113h688l13 -93l-543 -712h559v-115h-739z" />
<glyph unicode="{" horiz-adv-x="651" d="M82 606v86q83 10 135.5 71.5t52.5 174.5v285q0 70 22.5 123t61 82t80 44t88.5 17l15 -96q-144 -6 -144 -189v-268q0 -218 -151 -285q67 -27 109 -104.5t42 -181.5v-291q0 -90 34 -134t118 -69l-27 -96q-53 14 -85.5 26t-67.5 35t-53 54t-30 80.5t-12 117.5v236 q0 260 -188 282z" />
<glyph unicode="|" horiz-adv-x="555" d="M207 -182v1568h143v-1568h-143z" />
<glyph unicode="}" horiz-adv-x="651" d="M109 1395l24 96q54 -14 87 -26t67.5 -35t53 -54t30.5 -80.5t12 -117.5v-236q0 -261 188 -283v-86q-84 -10 -136 -70.5t-52 -174.5v-285q0 -70 -23 -123t-61.5 -82t-80 -44t-87.5 -17l-16 96q143 6 143 188v269q0 216 154 284q-69 27 -111.5 105t-42.5 182v291 q0 90 -33 134t-116 69z" />
<glyph unicode="~" horiz-adv-x="940" d="M76 535q121 86 235 86q52 0 100.5 -16t79.5 -34.5t70 -34.5t76 -16q53 0 93.5 17.5t88.5 50.5l45 -101q-113 -94 -239 -94q-48 0 -92.5 16t-73 34.5t-72 34.5t-90.5 16q-100 0 -182 -62z" />
<glyph unicode="&#xa1;" horiz-adv-x="481" d="M162 842q0 42 31 71t73 29q44 0 73.5 -28.5t29.5 -71.5q0 -44 -30 -73.5t-73 -29.5q-44 0 -74 29.5t-30 73.5zM182 -340l17 885h135l16 -885h-168z" />
<glyph unicode="&#xa2;" horiz-adv-x="851" d="M113 463q0 203 93.5 325.5t258.5 149.5v203h129v-199q109 -6 207 -51l-37 -123q-104 55 -215 55q-133 0 -208 -90t-75 -260q0 -172 77 -274.5t212 -102.5q101 0 215 54l37 -119q-101 -46 -213 -54v-204h-129v209q-170 23 -261 150t-91 331z" />
<glyph unicode="&#xa3;" horiz-adv-x="935" d="M55 92q102 63 132 138.5t30 220.5v174h-162v114h162v183q0 101 38.5 180.5t121 128.5t198.5 49q139 0 269 -49l-41 -115q-96 41 -211 41q-116 0 -174 -63t-58 -174v-181h240v-114h-240v-181q0 -136 -19.5 -209.5t-82.5 -117.5h582v-117h-777z" />
<glyph unicode="&#xa4;" horiz-adv-x="1052" d="M86 465v110h129q-2 25 -2 78q0 43 2 66h-129v110h143q17 94 53.5 174.5t92 144t136 100t177.5 36.5q87 0 145 -17t134 -57l-37 -125q-61 42 -115.5 59t-124.5 17q-117 0 -196 -89.5t-109 -242.5h428v-110h-440q-2 -20 -2 -62q0 -15 1 -42t1 -40h440v-110h-430 q26 -172 102.5 -270.5t208.5 -98.5q70 0 127 19t127 61l35 -121q-65 -42 -133 -62t-162 -20q-105 0 -187.5 35t-138.5 101.5t-90 154.5t-49 201h-137z" />
<glyph unicode="&#xa5;" horiz-adv-x="940" d="M0 1260h156l307 -648l321 648h156l-278 -527h212v-110h-270l-65 -123h335v-111h-339v-391h-146v391h-338v111h340l-63 123h-277v110h219z" />
<glyph unicode="&#xa6;" horiz-adv-x="555" d="M207 -182v686h143v-686h-143zM207 745v644h143v-644h-143z" />
<glyph unicode="&#xa7;" horiz-adv-x="997" d="M154 -201l34 113q151 -51 269 -51q39 0 74 6.5t68.5 21t53 44t19.5 71.5q0 51 -27.5 92t-72 70t-98 55.5t-107 55.5t-98 62t-72 82.5t-27.5 110.5q0 145 174 265q-71 46 -110 102t-39 133q0 63 29 112t78 76.5t106.5 41.5t121.5 14q165 0 277 -47l-27 -119 q-117 51 -250 51q-82 0 -138 -32t-56 -99q0 -39 21.5 -72t57 -56.5t80.5 -48t92 -45t92 -50t80.5 -61.5t57 -80t21.5 -105q0 -70 -42 -128t-145 -112q162 -103 162 -260q0 -71 -29.5 -123.5t-81 -82t-113.5 -44t-136 -14.5q-154 0 -299 51zM309 547q0 -35 16.5 -64.5 t48.5 -53.5t65.5 -42.5t80.5 -42.5q19 -9 29 -14q48 29 74.5 49t48.5 53t22 72q0 38 -15.5 69.5t-56 61.5t-65 44t-87.5 46q-13 7 -19 10q-65 -45 -103.5 -89t-38.5 -99z" />
<glyph unicode="&#xa8;" horiz-adv-x="638" d="M10 1198q0 41 29.5 68.5t73.5 27.5q40 0 69 -27.5t29 -68.5t-29 -67.5t-69 -26.5q-44 0 -73.5 26.5t-29.5 67.5zM422 1198q0 41 28 68.5t68 27.5q44 0 74.5 -27.5t30.5 -68.5t-30 -67.5t-75 -26.5q-39 0 -67.5 27t-28.5 67z" />
<glyph unicode="&#xa9;" horiz-adv-x="2197" d="M168 512q0 183 72 350t194 287t290.5 191t354.5 71t354.5 -71t290 -191t193.5 -287t72 -350q0 -184 -72 -351t-193.5 -288t-290 -192.5t-354.5 -71.5t-354.5 70.5t-290.5 190.5t-194 288t-72 354zM297 510q0 -161 62 -305.5t167 -247.5t249 -163t302 -60q159 0 304 61.5 t250 165t167 247.5t62 302q0 211 -106 390t-286 282.5t-391 103.5q-159 0 -303.5 -61.5t-249 -165.5t-166 -247.5t-61.5 -301.5zM569 524q0 119 41 216t110.5 159.5t159 96.5t189.5 34q93 0 170.5 -17t167.5 -57l-41 -120q-78 38 -138.5 54.5t-133.5 16.5q-47 0 -95 -11 t-99 -39t-90 -70t-64 -110t-25 -153q0 -91 25.5 -166t65 -122t88.5 -79.5t94 -45.5t85 -13q87 0 151 14.5t146 51.5l43 -115q-152 -74 -350 -74q-105 0 -196 37t-158.5 105t-106.5 173t-39 234z" />
<glyph unicode="&#xaa;" horiz-adv-x="714" d="M80 778q0 49 18 85.5t49.5 60.5t80.5 39t106 22t131 8v72q0 52 -25.5 87.5t-87.5 35.5q-93 0 -209 -53l-26 98q148 53 256 53q117 0 167 -61.5t50 -155.5v-297q0 -44 10 -156h-111l-10 72q-5 -3 -22 -14.5t-23.5 -16t-23 -14.5t-25.5 -14t-25 -11t-28 -10t-27.5 -5.5 t-30.5 -2.5q-89 0 -141.5 51t-52.5 127zM90 387v115h518v-115h-518zM201 788q0 -41 23.5 -66.5t70.5 -25.5q38 0 85 22t85 56v141q-132 0 -198 -30t-66 -97z" />
<glyph unicode="&#xab;" horiz-adv-x="987" d="M121 465l293 385l116 -33l-229 -352l231 -359l-118 -26zM487 465l265 338l112 -31l-198 -307l200 -315l-114 -29z" />
<glyph unicode="&#xac;" horiz-adv-x="1179" d="M113 514v119h946v-459h-125v340h-821z" />
<glyph unicode="&#xad;" horiz-adv-x="813" d="M133 496v122h541v-122h-541z" />
<glyph unicode="&#xae;" horiz-adv-x="2197" d="M168 512q0 183 72 350t194 287t290.5 191t354.5 71t354.5 -71t290 -191t193.5 -287t72 -350q0 -184 -72 -351t-193.5 -288t-290 -192.5t-354.5 -71.5t-354.5 70.5t-290.5 190.5t-194 288t-72 354zM297 510q0 -161 62 -305.5t167 -247.5t249 -163t302 -60q159 0 304 61.5 t250 165t167 247.5t62 302q0 211 -106 390t-286 282.5t-391 103.5q-159 0 -303.5 -61.5t-249 -165.5t-166 -247.5t-61.5 -301.5zM762 -2v1014h250q96 0 170 -19t118 -48t71.5 -69t37.5 -77.5t10 -77.5q0 -191 -219 -268l268 -455h-151l-236 428q-92 -15 -186 -8v-420h-133z M895 516q204 -1 295.5 50t91.5 149q0 40 -12 70.5t-44 59t-98.5 43.5t-164.5 15h-68v-387z" />
<glyph unicode="&#xaf;" horiz-adv-x="626" d="M33 1077v105h555v-105h-555z" />
<glyph unicode="&#xb0;" horiz-adv-x="835" d="M127 1122q0 114 82 192.5t201 78.5q117 0 198.5 -78.5t81.5 -192.5t-81 -192t-199 -78q-120 0 -201.5 78t-81.5 192zM242 1122q0 -72 49 -123t119 -51q69 0 118.5 51t49.5 123q0 73 -49 122.5t-119 49.5t-119 -49.5t-49 -122.5z" />
<glyph unicode="&#xb1;" horiz-adv-x="1052" d="M117 0v123h817v-123h-817zM117 535v118h342v336h135v-336h340v-118h-340v-330h-135v330h-342z" />
<glyph unicode="&#xb2;" horiz-adv-x="649" d="M45 739v78q60 40 103 70.5t99 75.5t91.5 82t60.5 78.5t25 76.5q0 47 -32 76t-95 29q-89 0 -205 -54l-33 99q121 59 242 59q130 0 192 -57t62 -144q0 -47 -24.5 -97t-70 -99t-89.5 -87t-103 -83h320v-103h-543z" />
<glyph unicode="&#xb3;" horiz-adv-x="587" d="M37 1378q92 31 203 31q117 0 186.5 -46.5t69.5 -135.5q0 -108 -129 -168q81 -17 124.5 -69t43.5 -122q0 -133 -114 -208.5t-294 -75.5q-34 0 -84 4v104q31 -4 86 -4q114 0 191 46t77 126q0 136 -229 125l-57 -2l-5 88l56 4q88 6 143 43t55 92q0 46 -37 71.5t-104 25.5 q-84 0 -153 -27z" />
<glyph unicode="&#xb4;" horiz-adv-x="292" d="M-6 1079l188 277l123 -68l-221 -252z" />
<glyph unicode="&#xb6;" horiz-adv-x="1163" d="M59 1032q0 92 33.5 167t102 132t181 88t261.5 31h338v-1585h-139v1464h-187q-206 0 -324 -70.5t-118 -216.5q0 -77 43.5 -133.5t115 -85.5t145 -42t151.5 -13v-903h-140v788q-115 11 -205.5 47.5t-145.5 89t-83.5 114t-28.5 128.5z" />
<glyph unicode="&#xb7;" horiz-adv-x="538" d="M166 594q0 42 31 71t73 29q44 0 73.5 -28.5t29.5 -71.5q0 -44 -30 -73t-73 -29q-44 0 -74 29t-30 73z" />
<glyph unicode="&#xb8;" horiz-adv-x="550" d="M143 -410l21 76q68 -22 125 -22q125 0 125 84q0 102 -187 90l29 186l90 -2l-20 -111q94 -11 145 -53t51 -114q0 -82 -63 -121t-158 -39q-82 0 -158 26z" />
<glyph unicode="&#xb9;" horiz-adv-x="512" d="M10 1251l269 144h104v-656h-131v508l-199 -88z" />
<glyph unicode="&#xba;" horiz-adv-x="815" d="M90 944q0 36 7.5 76t29.5 88t55.5 85.5t92 63t131.5 25.5q64 0 115 -16.5t83 -45.5t54 -62.5t32.5 -73.5t14.5 -71t4 -63q0 -43 -8 -86t-30 -91.5t-56 -85.5t-92 -61t-132 -24q-73 0 -129 24t-88 60t-51.5 84.5t-26 89.5t-6.5 84zM111 387v115h604v-115h-604zM223 948 q0 -29 3.5 -57t14.5 -62.5t29 -59.5t51 -42.5t76 -17.5q54 0 91.5 24.5t55 64.5t24.5 75.5t7 72.5q0 35 -6.5 69.5t-23 74t-54 64t-90.5 24.5t-90.5 -24t-55 -62.5t-25 -73.5t-7.5 -70z" />
<glyph unicode="&#xbb;" horiz-adv-x="989" d="M121 778l117 31l264 -346l-264 -338l-113 33l199 305zM457 821l118 29l293 -385l-295 -385l-114 31l229 354z" />
<glyph unicode="&#xbc;" horiz-adv-x="1277" d="M29 1133l250 143h102v-717h-125l4 576l-194 -91zM113 129l936 1126l92 -86l-934 -1124zM688 240l221 487h129l-221 -473h205l12 231h103v-231h102v-98h-102v-156h-121v156h-301z" />
<glyph unicode="&#xbd;" d="M29 1133l250 143h102v-717h-125l4 576l-194 -91zM139 129l936 1126l92 -86l-934 -1124zM809 68q154 140 210 201q144 156 144 255q0 47 -33 69.5t-88 22.5q-88 0 -190 -43l-27 95q117 53 234 53q110 0 170.5 -48t60.5 -141q0 -55 -26 -113.5t-76.5 -119t-93 -103.5 t-107.5 -102h334v-94h-504z" />
<glyph unicode="&#xbe;" horiz-adv-x="1331" d="M16 565l29 101q82 -23 148 -23q74 0 119.5 32t45.5 91q0 123 -188 123h-72l-4 86h45q82 0 134.5 33t52.5 84q0 40 -30.5 63t-82.5 23q-77 0 -147 -33l-31 92q100 41 201 41q98 0 160.5 -43.5t62.5 -124.5q0 -54 -30 -94.5t-81 -63.5q141 -43 141 -180 q0 -110 -80.5 -168.5t-220.5 -58.5q-84 0 -172 20zM160 129l936 1126l92 -86l-934 -1124zM756 240l221 487h129l-221 -473h205l12 231h102v-231h103v-98h-103v-156h-121v156h-301z" />
<glyph unicode="&#xbf;" horiz-adv-x="821" d="M111 -76q2 49 18 92t40.5 76t53.5 64.5t58 63.5t52.5 66t38.5 78.5t15 94.5v94h145v-102q0 -80 -28 -146.5t-67.5 -111t-79 -84t-67.5 -84t-28 -91.5q0 -145 176 -145q121 0 264 88l41 -119q-156 -94 -311 -94q-321 0 -321 260zM354 842q0 42 31.5 71t73.5 29 q44 0 73 -28.5t29 -71.5q0 -44 -29.5 -73.5t-72.5 -29.5q-44 0 -74.5 29.5t-30.5 73.5z" />
<glyph unicode="&#xc0;" horiz-adv-x="1085" d="M-8 0l471 1262h145l486 -1262h-164l-146 383h-501l-140 -383h-151zM324 502h417l-211 598zM336 1618l139 70l195 -267l-101 -47z" />
<glyph unicode="&#xc1;" horiz-adv-x="1085" d="M-8 0l471 1262h145l486 -1262h-164l-146 383h-501l-140 -383h-151zM324 502h417l-211 598zM463 1413l188 277l123 -68l-221 -252z" />
<glyph unicode="&#xc2;" horiz-adv-x="1085" d="M-8 0l471 1262h145l486 -1262h-164l-146 383h-501l-140 -383h-151zM276 1425l273 215l280 -204l-69 -68l-211 135l-201 -135zM324 502h417l-211 598z" />
<glyph unicode="&#xc3;" horiz-adv-x="1085" d="M-8 0l471 1262h145l486 -1262h-164l-146 383h-501l-140 -383h-151zM252 1468q94 88 190 88q56 0 118 -24.5t99 -24.5q57 0 127 52l58 -64q-80 -92 -187 -92q-58 0 -119.5 25.5t-97.5 25.5q-24 0 -48 -8.5t-39 -17.5t-44 -29zM324 502h417l-211 598z" />
<glyph unicode="&#xc4;" horiz-adv-x="1085" d="M-8 0l471 1262h145l486 -1262h-164l-146 383h-501l-140 -383h-151zM225 1473q0 42 29 69t74 27q40 0 69 -27.5t29 -68.5t-29 -67t-69 -26q-45 0 -74 26t-29 67zM324 502h417l-211 598zM637 1473q0 41 28 68.5t68 27.5q44 0 74.5 -27.5t30.5 -68.5t-30 -67t-75 -26 q-39 0 -67.5 26.5t-28.5 66.5z" />
<glyph unicode="&#xc5;" horiz-adv-x="1085" d="M-8 0l448 1200q-47 25 -72.5 69.5t-25.5 100.5q0 83 56.5 140t144.5 57q92 0 148.5 -57.5t56.5 -139.5q0 -57 -31 -104t-84 -72l461 -1194h-164l-146 383h-501l-140 -383h-151zM324 502h417l-211 598zM436 1370q0 -45 28.5 -75.5t78.5 -30.5t79 31t29 75q0 46 -28.5 78.5 t-79.5 32.5q-50 0 -78.5 -32.5t-28.5 -78.5z" />
<glyph unicode="&#xc6;" horiz-adv-x="1566" d="M-25 0l703 1262h717v-121h-551l86 -410h448v-121h-424l103 -489h405v-121h-530l-80 395h-492l-210 -395h-175zM422 508h412l-117 588z" />
<glyph unicode="&#xc7;" horiz-adv-x="999" d="M106 659q0 90 18.5 176.5t60.5 169t103.5 143.5t154.5 98.5t206 37.5q108 0 171.5 -14.5t152.5 -52.5l-31 -125q-74 38 -141 53.5t-152 15.5t-152.5 -29.5t-111 -77.5t-72.5 -113.5t-41 -133.5t-12 -141q0 -82 9 -154t35 -150t67.5 -133t113.5 -91t166 -36q146 0 297 74 l37 -121q-152 -73 -336 -75l-16 -89q94 -11 145 -53t51 -114q0 -82 -63 -121t-158 -39q-81 0 -157 26l20 76q68 -22 125 -22q125 0 125 84q0 102 -186 90l24 168q-108 12 -190 59.5t-131 113t-79.5 153.5t-41.5 171t-11 176z" />
<glyph unicode="&#xc8;" horiz-adv-x="1083" d="M223 0v1262h740v-121h-594v-424h534v-121h-534v-475h632v-121h-778zM395 1616l137 72l195 -269l-98 -45z" />
<glyph unicode="&#xc9;" horiz-adv-x="1083" d="M223 0v1262h740v-121h-594v-424h534v-121h-534v-475h632v-121h-778zM471 1413l188 277l123 -68l-221 -252z" />
<glyph unicode="&#xca;" horiz-adv-x="1083" d="M223 0v1262h740v-121h-594v-424h534v-121h-534v-475h632v-121h-778zM311 1425l275 217l278 -206l-67 -68l-211 137l-201 -137z" />
<glyph unicode="&#xcb;" horiz-adv-x="1083" d="M223 0v1262h740v-121h-594v-424h534v-121h-534v-475h632v-121h-778zM281 1473q0 41 29 68.5t73 27.5q40 0 69 -27.5t29 -68.5t-29 -68t-69 -27q-44 0 -73 27t-29 68zM692 1473q0 41 28 68.5t68 27.5q44 0 74.5 -27.5t30.5 -68.5t-30 -68t-75 -27q-39 0 -67.5 27.5 t-28.5 67.5z" />
<glyph unicode="&#xcc;" horiz-adv-x="575" d="M88 1618l139 70l195 -267l-100 -47zM215 0v1262h145v-1262h-145z" />
<glyph unicode="&#xcd;" horiz-adv-x="575" d="M184 1413l189 277l123 -68l-222 -252zM215 0v1262h145v-1262h-145z" />
<glyph unicode="&#xce;" horiz-adv-x="575" d="M20 1425l275 217l278 -206l-67 -68l-211 137l-201 -137zM215 0v1262h145v-1262h-145z" />
<glyph unicode="&#xcf;" horiz-adv-x="575" d="M-8 1532q0 41 29 68.5t73 27.5q40 0 69.5 -27.5t29.5 -68.5t-29.5 -67.5t-69.5 -26.5q-44 0 -73 26.5t-29 67.5zM215 0v1262h145v-1262h-145zM403 1532q0 41 28.5 68.5t68.5 27.5q44 0 74 -27.5t30 -68.5t-29.5 -67.5t-74.5 -26.5q-39 0 -68 27t-29 67z" />
<glyph unicode="&#xd0;" horiz-adv-x="1335" d="M51 586v104h176v572h365q105 0 193 -21t150 -56t110.5 -85t78.5 -104t49 -117.5t26 -120.5t7 -117q0 -65 -6.5 -124.5t-25 -125.5t-48 -121t-77.5 -106t-111.5 -86.5t-153 -56.5t-198.5 -21h-359v586h-176zM373 121h229q80 0 146 17t112 45t81 69.5t56 85t34 96.5 t17.5 100t4.5 99q0 72 -11 137t-43 135t-83 120.5t-138.5 83t-202.5 32.5h-202v-451h233v-104h-233v-465z" />
<glyph unicode="&#xd1;" horiz-adv-x="1462" d="M223 0v1262h113l762 -994v994h139v-1262h-104l-768 1006v-1006h-142zM432 1468q94 88 191 88q56 0 118 -24.5t99 -24.5q57 0 127 52l57 -64q-80 -92 -186 -92q-58 0 -119.5 25.5t-97.5 25.5q-24 0 -48 -8.5t-40 -18t-44 -28.5z" />
<glyph unicode="&#xd2;" d="M109 606q0 80 12.5 156.5t39.5 154.5t73.5 143t108.5 116t152 79.5t197 28.5q123 0 220.5 -37.5t160 -99t103.5 -145t58 -169.5t17 -178q0 -104 -17 -197t-59.5 -183t-107.5 -154.5t-167.5 -104t-233.5 -39.5q-92 0 -169.5 20t-133.5 54.5t-100.5 83.5t-73 103.5t-47 118 t-26 124.5t-7.5 125zM260 612q0 -78 11.5 -148t41 -138.5t75 -118t118 -79.5t164.5 -30q94 0 169 31t123 82.5t79.5 123.5t45 149t13.5 163q0 74 -11 142.5t-40.5 138.5t-74.5 120.5t-119 82.5t-169 32q-98 0 -175 -35t-123 -90.5t-76 -130.5t-41 -146.5t-11 -148.5z M455 1618l139 70l194 -267l-100 -47z" />
<glyph unicode="&#xd3;" d="M109 606q0 80 12.5 156.5t39.5 154.5t73.5 143t108.5 116t152 79.5t197 28.5q123 0 220.5 -37.5t160 -99t103.5 -145t58 -169.5t17 -178q0 -104 -17 -197t-59.5 -183t-107.5 -154.5t-167.5 -104t-233.5 -39.5q-92 0 -169.5 20t-133.5 54.5t-100.5 83.5t-73 103.5t-47 118 t-26 124.5t-7.5 125zM260 612q0 -78 11.5 -148t41 -138.5t75 -118t118 -79.5t164.5 -30q94 0 169 31t123 82.5t79.5 123.5t45 149t13.5 163q0 74 -11 142.5t-40.5 138.5t-74.5 120.5t-119 82.5t-169 32q-98 0 -175 -35t-123 -90.5t-76 -130.5t-41 -146.5t-11 -148.5z M567 1413l189 277l123 -68l-222 -252z" />
<glyph unicode="&#xd4;" d="M109 606q0 80 12.5 156.5t39.5 154.5t73.5 143t108.5 116t152 79.5t197 28.5q123 0 220.5 -37.5t160 -99t103.5 -145t58 -169.5t17 -178q0 -104 -17 -197t-59.5 -183t-107.5 -154.5t-167.5 -104t-233.5 -39.5q-92 0 -169.5 20t-133.5 54.5t-100.5 83.5t-73 103.5t-47 118 t-26 124.5t-7.5 125zM260 612q0 -78 11.5 -148t41 -138.5t75 -118t118 -79.5t164.5 -30q94 0 169 31t123 82.5t79.5 123.5t45 149t13.5 163q0 74 -11 142.5t-40.5 138.5t-74.5 120.5t-119 82.5t-169 32q-98 0 -175 -35t-123 -90.5t-76 -130.5t-41 -146.5t-11 -148.5z M406 1425l274 217l278 -206l-67 -68l-211 137l-201 -137z" />
<glyph unicode="&#xd5;" d="M109 606q0 80 12.5 156.5t39.5 154.5t73.5 143t108.5 116t152 79.5t197 28.5q123 0 220.5 -37.5t160 -99t103.5 -145t58 -169.5t17 -178q0 -104 -17 -197t-59.5 -183t-107.5 -154.5t-167.5 -104t-233.5 -39.5q-92 0 -169.5 20t-133.5 54.5t-100.5 83.5t-73 103.5t-47 118 t-26 124.5t-7.5 125zM260 612q0 -78 11.5 -148t41 -138.5t75 -118t118 -79.5t164.5 -30q94 0 169 31t123 82.5t79.5 123.5t45 149t13.5 163q0 74 -11 142.5t-40.5 138.5t-74.5 120.5t-119 82.5t-169 32q-98 0 -175 -35t-123 -90.5t-76 -130.5t-41 -146.5t-11 -148.5z M383 1468q94 88 190 88q56 0 118.5 -24.5t99.5 -24.5q57 0 127 52l57 -64q-80 -92 -187 -92q-58 0 -119.5 25.5t-97.5 25.5q-24 0 -48 -8.5t-39 -17.5t-44 -29z" />
<glyph unicode="&#xd6;" d="M109 606q0 80 12.5 156.5t39.5 154.5t73.5 143t108.5 116t152 79.5t197 28.5q123 0 220.5 -37.5t160 -99t103.5 -145t58 -169.5t17 -178q0 -104 -17 -197t-59.5 -183t-107.5 -154.5t-167.5 -104t-233.5 -39.5q-92 0 -169.5 20t-133.5 54.5t-100.5 83.5t-73 103.5t-47 118 t-26 124.5t-7.5 125zM260 612q0 -78 11.5 -148t41 -138.5t75 -118t118 -79.5t164.5 -30q94 0 169 31t123 82.5t79.5 123.5t45 149t13.5 163q0 74 -11 142.5t-40.5 138.5t-74.5 120.5t-119 82.5t-169 32q-98 0 -175 -35t-123 -90.5t-76 -130.5t-41 -146.5t-11 -148.5z M375 1532q0 41 29 68.5t73 27.5q40 0 69 -27.5t29 -68.5t-29 -67.5t-69 -26.5q-44 0 -73 26.5t-29 67.5zM786 1532q0 41 28.5 68.5t68.5 27.5q44 0 74 -27.5t30 -68.5t-29.5 -67.5t-74.5 -26.5q-39 0 -68 27t-29 67z" />
<glyph unicode="&#xd7;" horiz-adv-x="1052" d="M162 776l90 92l276 -278l269 274l92 -92l-271 -270l275 -273l-94 -90l-271 273l-270 -273l-90 90l268 271z" />
<glyph unicode="&#xd8;" d="M53 61l150 154q-94 157 -94 391q0 80 12.5 156.5t39.5 154.5t73.5 143t108.5 116t152 79.5t197 28.5q252 0 398 -156l157 162l90 -94l-172 -174q86 -156 86 -367q0 -104 -17 -197t-59.5 -183t-107.5 -154.5t-167.5 -104t-233.5 -39.5q-240 0 -383 136l-140 -146zM260 612 q0 -171 53 -288l678 702q-105 137 -305 137q-98 0 -175 -35t-123 -90.5t-76 -130.5t-41 -146.5t-11 -148.5zM379 215q102 -117 291 -117q94 0 169 31t123 82.5t79.5 123.5t45 149t13.5 163q0 151 -45 268z" />
<glyph unicode="&#xd9;" d="M211 438v824h145v-793q0 -76 17 -138.5t53.5 -114.5t101.5 -81t154 -29q90 0 156 31.5t101 86t51 116t16 133.5v789h143v-820q0 -70 -15.5 -134.5t-51.5 -125.5t-90 -106t-137 -72t-187 -27q-102 0 -182.5 27t-131 71t-83.5 105.5t-46.5 124.5t-13.5 133zM483 1618 l140 70l194 -267l-100 -47z" />
<glyph unicode="&#xda;" d="M211 438v824h145v-793q0 -76 17 -138.5t53.5 -114.5t101.5 -81t154 -29q90 0 156 31.5t101 86t51 116t16 133.5v789h143v-820q0 -70 -15.5 -134.5t-51.5 -125.5t-90 -106t-137 -72t-187 -27q-102 0 -182.5 27t-131 71t-83.5 105.5t-46.5 124.5t-13.5 133zM582 1413 l188 277l123 -68l-221 -252z" />
<glyph unicode="&#xdb;" d="M211 438v824h145v-793q0 -76 17 -138.5t53.5 -114.5t101.5 -81t154 -29q90 0 156 31.5t101 86t51 116t16 133.5v789h143v-820q0 -70 -15.5 -134.5t-51.5 -125.5t-90 -106t-137 -72t-187 -27q-102 0 -182.5 27t-131 71t-83.5 105.5t-46.5 124.5t-13.5 133zM420 1425 l274 217l279 -206l-68 -68l-211 137l-200 -137z" />
<glyph unicode="&#xdc;" d="M211 438v824h145v-793q0 -76 17 -138.5t53.5 -114.5t101.5 -81t154 -29q90 0 156 31.5t101 86t51 116t16 133.5v789h143v-820q0 -70 -15.5 -134.5t-51.5 -125.5t-90 -106t-137 -72t-187 -27q-102 0 -182.5 27t-131 71t-83.5 105.5t-46.5 124.5t-13.5 133zM387 1532 q0 41 29 68.5t73 27.5q40 0 69.5 -27.5t29.5 -68.5t-29.5 -67.5t-69.5 -26.5q-44 0 -73 26.5t-29 67.5zM799 1532q0 41 28 68.5t68 27.5q44 0 74 -27.5t30 -68.5t-29.5 -67.5t-74.5 -26.5q-39 0 -67.5 27t-28.5 67z" />
<glyph unicode="&#xdd;" horiz-adv-x="940" d="M-31 1262h164l342 -705l342 705h154l-428 -848v-414h-146v410zM379 1413l188 277l123 -68l-221 -252z" />
<glyph unicode="&#xde;" horiz-adv-x="1079" d="M248 0v1262h145v-230h146q112 0 198.5 -27t136 -67t81.5 -93.5t42.5 -99.5t10.5 -92q0 -55 -12 -105t-43.5 -101t-80.5 -88t-129.5 -60t-183.5 -23q-95 0 -166 15v-291h-145zM393 410q106 -13 162 -13q87 0 148.5 22.5t92 61.5t43.5 81t13 91q0 30 -5 58t-25.5 66.5 t-55 66.5t-99 47.5t-151.5 19.5h-123v-501z" />
<glyph unicode="&#xdf;" horiz-adv-x="1048" d="M197 0v997q0 183 102 294.5t293 111.5q159 0 248.5 -74t89.5 -188q0 -57 -21.5 -110.5t-52 -95t-61.5 -80.5t-52.5 -82t-21.5 -85q0 -41 20 -78.5t49.5 -65t64.5 -62t64.5 -68t49.5 -84t20 -109.5q0 -58 -20 -103t-51 -71.5t-72 -43t-77.5 -22.5t-74.5 -6q-111 0 -252 62 l43 125q123 -68 205 -68q72 0 111 32.5t39 92.5q0 48 -28 93t-68 82.5t-79.5 76.5t-67.5 92t-28 113q0 55 22 107t53.5 93t62.5 80.5t53 83t22 86.5q0 66 -48 113t-144 47q-121 0 -184.5 -78.5t-63.5 -203.5v-1004h-145z" />
<glyph unicode="&#xe0;" horiz-adv-x="946" d="M94 236q0 294 539 301v90q0 202 -160 202q-124 0 -289 -77l-32 112q187 78 329 78q87 0 147.5 -26t91.5 -73t43.5 -99.5t12.5 -118.5v-346q0 -135 19 -279h-129q-14 92 -15 106q-6 -4 -29.5 -22t-32 -24t-31 -21t-35 -21t-35 -16.5t-40.5 -15t-41 -8t-47 -3.5 q-51 0 -96.5 15t-84.5 44.5t-62 81.5t-23 120zM242 248q0 -75 41.5 -116.5t111.5 -41.5q99 0 238 121v229q-192 -2 -291.5 -47.5t-99.5 -144.5zM285 1284l139 70l194 -267l-100 -47z" />
<glyph unicode="&#xe1;" horiz-adv-x="946" d="M94 236q0 294 539 301v90q0 202 -160 202q-124 0 -289 -77l-32 112q187 78 329 78q87 0 147.5 -26t91.5 -73t43.5 -99.5t12.5 -118.5v-346q0 -135 19 -279h-129q-14 92 -15 106q-6 -4 -29.5 -22t-32 -24t-31 -21t-35 -21t-35 -16.5t-40.5 -15t-41 -8t-47 -3.5 q-51 0 -96.5 15t-84.5 44.5t-62 81.5t-23 120zM242 248q0 -75 41.5 -116.5t111.5 -41.5q99 0 238 121v229q-192 -2 -291.5 -47.5t-99.5 -144.5zM385 1079l188 277l123 -68l-221 -252z" />
<glyph unicode="&#xe2;" horiz-adv-x="946" d="M94 236q0 294 539 301v90q0 202 -160 202q-124 0 -289 -77l-32 112q187 78 329 78q87 0 147.5 -26t91.5 -73t43.5 -99.5t12.5 -118.5v-346q0 -135 19 -279h-129q-14 92 -15 106q-6 -4 -29.5 -22t-32 -24t-31 -21t-35 -21t-35 -16.5t-40.5 -15t-41 -8t-47 -3.5 q-51 0 -96.5 15t-84.5 44.5t-62 81.5t-23 120zM207 1092l274 217l279 -207l-68 -68l-211 137l-200 -137zM242 248q0 -75 41.5 -116.5t111.5 -41.5q99 0 238 121v229q-192 -2 -291.5 -47.5t-99.5 -144.5z" />
<glyph unicode="&#xe3;" horiz-adv-x="946" d="M94 236q0 294 539 301v90q0 202 -160 202q-124 0 -289 -77l-32 112q187 78 329 78q87 0 147.5 -26t91.5 -73t43.5 -99.5t12.5 -118.5v-346q0 -135 19 -279h-129q-14 92 -15 106q-6 -4 -29.5 -22t-32 -24t-31 -21t-35 -21t-35 -16.5t-40.5 -15t-41 -8t-47 -3.5 q-51 0 -96.5 15t-84.5 44.5t-62 81.5t-23 120zM184 1135q94 88 191 88q56 0 118 -24.5t99 -24.5q58 0 127 51l57 -64q-80 -92 -186 -92q-58 0 -119.5 25.5t-97.5 25.5q-24 0 -48 -8.5t-39 -17.5t-44 -29zM242 248q0 -75 41.5 -116.5t111.5 -41.5q99 0 238 121v229 q-192 -2 -291.5 -47.5t-99.5 -144.5z" />
<glyph unicode="&#xe4;" horiz-adv-x="946" d="M94 236q0 294 539 301v90q0 202 -160 202q-124 0 -289 -77l-32 112q187 78 329 78q87 0 147.5 -26t91.5 -73t43.5 -99.5t12.5 -118.5v-346q0 -135 19 -279h-129q-14 92 -15 106q-6 -4 -29.5 -22t-32 -24t-31 -21t-35 -21t-35 -16.5t-40.5 -15t-41 -8t-47 -3.5 q-51 0 -96.5 15t-84.5 44.5t-62 81.5t-23 120zM154 1198q0 41 29 68.5t73 27.5q40 0 69 -27.5t29 -68.5t-29 -67.5t-69 -26.5q-44 0 -73 26.5t-29 67.5zM242 248q0 -75 41.5 -116.5t111.5 -41.5q99 0 238 121v229q-192 -2 -291.5 -47.5t-99.5 -144.5zM565 1198 q0 41 28.5 68.5t68.5 27.5q44 0 74 -27.5t30 -68.5t-29.5 -67.5t-74.5 -26.5q-39 0 -68 27t-29 67z" />
<glyph unicode="&#xe5;" horiz-adv-x="946" d="M94 236q0 294 539 301v90q0 202 -160 202q-124 0 -289 -77l-32 112q187 78 329 78q87 0 147.5 -26t91.5 -73t43.5 -99.5t12.5 -118.5v-346q0 -135 19 -279h-129q-14 92 -15 106q-6 -4 -29.5 -22t-32 -24t-31 -21t-35 -21t-35 -16.5t-40.5 -15t-41 -8t-47 -3.5 q-51 0 -96.5 15t-84.5 44.5t-62 81.5t-23 120zM242 248q0 -75 41.5 -116.5t111.5 -41.5q99 0 238 121v229q-192 -2 -291.5 -47.5t-99.5 -144.5zM305 1229q0 83 56.5 139.5t144.5 56.5q92 0 148.5 -57t56.5 -139q0 -80 -58 -137.5t-147 -57.5q-90 0 -145.5 56.5t-55.5 138.5z M399 1229q0 -45 28.5 -76t78.5 -31t79 31.5t29 75.5q0 46 -28.5 78t-79.5 32q-50 0 -78.5 -32t-28.5 -78z" />
<glyph unicode="&#xe6;" horiz-adv-x="1427" d="M94 236q0 105 69 177t183.5 105.5t269.5 36.5v88q0 82 -41 135t-120 53q-106 0 -271 -79l-32 114q59 24 95 37t98.5 27t117.5 14q98 0 159.5 -43.5t84.5 -118.5q54 76 127 119t157 43q86 0 151.5 -32.5t103.5 -90t56.5 -128t18.5 -154.5q0 -42 -8 -86h-565 q15 -363 264 -363q115 0 250 80l36 -113q-77 -43 -146.5 -62.5t-158.5 -19.5q-181 0 -282 154q-191 -154 -351 -154q-51 0 -96.5 15t-84.5 44.5t-62 81.5t-23 120zM242 248q0 -75 41.5 -116.5t111.5 -41.5q109 0 269 125q-45 109 -48 246q-178 -3 -276 -57.5t-98 -155.5z M748 553h434q3 127 -47.5 204t-155.5 77q-70 0 -121.5 -43.5t-76.5 -104t-33 -133.5z" />
<glyph unicode="&#xe7;" horiz-adv-x="837" d="M113 461q0 228 115 352.5t313 124.5q130 0 247 -53l-36 -121q-103 57 -213 57q-128 0 -202.5 -89t-74.5 -259q0 -175 74.5 -274t210.5 -99q103 0 211 54l35 -115q-112 -52 -250 -55l-17 -93q94 -11 145.5 -53t51.5 -114q0 -82 -63 -121t-158 -39q-82 0 -158 26l21 76 q68 -22 124 -22q125 0 125 84q0 102 -186 90l27 172q-166 22 -254 143.5t-88 327.5z" />
<glyph unicode="&#xe8;" horiz-adv-x="978" d="M113 457q0 221 107.5 353t299.5 132q93 0 162 -31.5t109.5 -88t59.5 -126.5t19 -155q0 -57 -6 -88h-614q2 -163 71.5 -261t219.5 -98q126 0 270 78l37 -113q-83 -42 -156.5 -62t-167.5 -20t-167 28t-118 73.5t-74 109.5t-40.5 129.5t-11.5 139.5zM256 553h481 q0 129 -53 203.5t-170 74.5q-104 0 -172.5 -73.5t-85.5 -204.5zM299 1284l139 70l195 -267l-101 -47z" />
<glyph unicode="&#xe9;" horiz-adv-x="978" d="M113 457q0 221 107.5 353t299.5 132q93 0 162 -31.5t109.5 -88t59.5 -126.5t19 -155q0 -57 -6 -88h-614q2 -163 71.5 -261t219.5 -98q126 0 270 78l37 -113q-83 -42 -156.5 -62t-167.5 -20t-167 28t-118 73.5t-74 109.5t-40.5 129.5t-11.5 139.5zM256 553h481 q0 129 -53 203.5t-170 74.5q-104 0 -172.5 -73.5t-85.5 -204.5zM430 1079l188 277l123 -68l-221 -252z" />
<glyph unicode="&#xea;" horiz-adv-x="978" d="M113 457q0 221 107.5 353t299.5 132q93 0 162 -31.5t109.5 -88t59.5 -126.5t19 -155q0 -57 -6 -88h-614q2 -163 71.5 -261t219.5 -98q126 0 270 78l37 -113q-83 -42 -156.5 -62t-167.5 -20t-167 28t-118 73.5t-74 109.5t-40.5 129.5t-11.5 139.5zM256 553h481 q0 129 -53 203.5t-170 74.5q-104 0 -172.5 -73.5t-85.5 -204.5zM258 1092l274 217l279 -207l-68 -68l-211 137l-200 -137z" />
<glyph unicode="&#xeb;" horiz-adv-x="978" d="M113 457q0 221 107.5 353t299.5 132q93 0 162 -31.5t109.5 -88t59.5 -126.5t19 -155q0 -57 -6 -88h-614q2 -163 71.5 -261t219.5 -98q126 0 270 78l37 -113q-83 -42 -156.5 -62t-167.5 -20t-167 28t-118 73.5t-74 109.5t-40.5 129.5t-11.5 139.5zM223 1198 q0 41 29.5 68.5t73.5 27.5q40 0 69 -27.5t29 -68.5t-29 -67.5t-69 -26.5q-44 0 -73.5 26.5t-29.5 67.5zM256 553h481q0 129 -53 203.5t-170 74.5q-104 0 -172.5 -73.5t-85.5 -204.5zM635 1198q0 41 28 68.5t68 27.5q44 0 74.5 -27.5t30.5 -68.5t-30 -67.5t-75 -26.5 q-39 0 -67.5 27t-28.5 67z" />
<glyph unicode="&#xec;" horiz-adv-x="526" d="M66 1284l139 70l194 -267l-100 -47zM190 0v920h146v-920h-146z" />
<glyph unicode="&#xed;" horiz-adv-x="526" d="M160 1079l188 277l123 -68l-221 -252zM190 0v920h146v-920h-146z" />
<glyph unicode="&#xee;" horiz-adv-x="526" d="M0 1092l274 217l279 -207l-68 -68l-211 137l-200 -137zM190 0v920h146v-920h-146z" />
<glyph unicode="&#xef;" horiz-adv-x="526" d="M-31 1198q0 41 29.5 68.5t73.5 27.5q40 0 69 -27.5t29 -68.5t-29 -67.5t-69 -26.5q-44 0 -73.5 26.5t-29.5 67.5zM190 0v920h146v-920h-146zM381 1198q0 41 28 68.5t68 27.5q44 0 74.5 -27.5t30.5 -68.5t-30 -67.5t-75 -26.5q-39 0 -67.5 27t-28.5 67z" />
<glyph unicode="&#xf0;" horiz-adv-x="1122" d="M145 367q0 106 39 189.5t105 133t150 73t178 15.5t184 -45q-40 183 -129 301l-230 -164l-55 80l219 156q-111 108 -274 168l53 112q201 -69 336 -198l176 127l53 -80l-166 -119q189 -237 189 -592q0 -123 -23 -220t-72 -172t-132 -115t-197 -40q-189 0 -296.5 105.5 t-107.5 284.5zM301 385q0 -123 69.5 -204t192.5 -81q62 0 108.5 23.5t74.5 61t45.5 92.5t23.5 110.5t6 122.5q0 62 -6 123q-98 34 -190 35.5t-164.5 -27t-116 -95t-43.5 -161.5z" />
<glyph unicode="&#xf1;" horiz-adv-x="1132" d="M193 0v920h137v-127q192 149 356 149q129 0 197.5 -74t68.5 -241v-627h-147v606q0 103 -40.5 155t-129.5 52q-134 0 -297 -145v-668h-145zM285 1135q94 88 190 88q56 0 118 -24.5t99 -24.5q58 0 127 51l58 -64q-80 -92 -187 -92q-58 0 -119.5 25.5t-97.5 25.5 q-24 0 -48 -8.5t-39 -17.5t-44 -29z" />
<glyph unicode="&#xf2;" horiz-adv-x="1062" d="M111 453q0 138 47.5 247t146.5 175.5t236 66.5q87 0 157 -25.5t116.5 -69.5t77.5 -104.5t44.5 -127t13.5 -140.5q0 -104 -26 -193t-77 -158t-133.5 -108t-187.5 -39q-136 0 -231.5 64.5t-139.5 170t-44 241.5zM262 457q0 -163 69 -263t199 -100q89 0 152 53t91 135.5 t28 186.5q0 160 -67 258t-197 98q-132 0 -203.5 -101t-71.5 -267zM342 1284l139 70l195 -267l-101 -47z" />
<glyph unicode="&#xf3;" horiz-adv-x="1062" d="M111 453q0 138 47.5 247t146.5 175.5t236 66.5q87 0 157 -25.5t116.5 -69.5t77.5 -104.5t44.5 -127t13.5 -140.5q0 -104 -26 -193t-77 -158t-133.5 -108t-187.5 -39q-136 0 -231.5 64.5t-139.5 170t-44 241.5zM262 457q0 -163 69 -263t199 -100q89 0 152 53t91 135.5 t28 186.5q0 160 -67 258t-197 98q-132 0 -203.5 -101t-71.5 -267zM438 1079l189 277l123 -68l-222 -252z" />
<glyph unicode="&#xf4;" horiz-adv-x="1062" d="M111 453q0 138 47.5 247t146.5 175.5t236 66.5q87 0 157 -25.5t116.5 -69.5t77.5 -104.5t44.5 -127t13.5 -140.5q0 -104 -26 -193t-77 -158t-133.5 -108t-187.5 -39q-136 0 -231.5 64.5t-139.5 170t-44 241.5zM262 457q0 -163 69 -263t199 -100q89 0 152 53t91 135.5 t28 186.5q0 160 -67 258t-197 98q-132 0 -203.5 -101t-71.5 -267zM279 1092l274 217l278 -207l-67 -68l-211 137l-201 -137z" />
<glyph unicode="&#xf5;" horiz-adv-x="1062" d="M111 453q0 138 47.5 247t146.5 175.5t236 66.5q87 0 157 -25.5t116.5 -69.5t77.5 -104.5t44.5 -127t13.5 -140.5q0 -104 -26 -193t-77 -158t-133.5 -108t-187.5 -39q-136 0 -231.5 64.5t-139.5 170t-44 241.5zM252 1135q94 88 190 88q56 0 118 -24.5t99 -24.5 q58 0 127 51l58 -64q-80 -92 -187 -92q-58 0 -119.5 25.5t-97.5 25.5q-24 0 -48 -8.5t-39 -17.5t-44 -29zM262 457q0 -163 69 -263t199 -100q89 0 152 53t91 135.5t28 186.5q0 160 -67 258t-197 98q-132 0 -203.5 -101t-71.5 -267z" />
<glyph unicode="&#xf6;" horiz-adv-x="1062" d="M111 453q0 138 47.5 247t146.5 175.5t236 66.5q87 0 157 -25.5t116.5 -69.5t77.5 -104.5t44.5 -127t13.5 -140.5q0 -104 -26 -193t-77 -158t-133.5 -108t-187.5 -39q-136 0 -231.5 64.5t-139.5 170t-44 241.5zM250 1198q0 41 29 68.5t73 27.5q40 0 69.5 -27.5t29.5 -68.5 t-29.5 -67.5t-69.5 -26.5q-44 0 -73 26.5t-29 67.5zM262 457q0 -163 69 -263t199 -100q89 0 152 53t91 135.5t28 186.5q0 160 -67 258t-197 98q-132 0 -203.5 -101t-71.5 -267zM662 1198q0 41 28 68.5t68 27.5q44 0 74 -27.5t30 -68.5t-29.5 -67.5t-74.5 -26.5 q-39 0 -67.5 27t-28.5 67z" />
<glyph unicode="&#xf7;" horiz-adv-x="1052" d="M125 410l768 278l43 -115l-768 -278zM328 881q0 42 31 71t73 29q44 0 73.5 -28.5t29.5 -71.5q0 -44 -30 -73.5t-73 -29.5q-44 0 -74 29.5t-30 73.5zM526 78q0 42 31.5 71t73.5 29q44 0 73 -28.5t29 -71.5q0 -44 -29.5 -73.5t-72.5 -29.5q-44 0 -74.5 29.5t-30.5 73.5z " />
<glyph unicode="&#xf8;" horiz-adv-x="1062" d="M6 66l154 137q-49 107 -49 250q0 138 47.5 247t146.5 175.5t236 66.5q192 0 299 -123l178 162l98 -98l-205 -185q39 -101 39 -223q0 -104 -26 -193t-77 -158t-133.5 -108t-187.5 -39q-179 0 -290 111l-132 -119zM262 457q0 -91 21 -162l460 416q-68 114 -206 114 q-132 0 -203.5 -101t-71.5 -267zM330 195q72 -101 200 -101q89 0 152 53t91 135.5t28 186.5q0 65 -17 135z" />
<glyph unicode="&#xf9;" horiz-adv-x="1146" d="M188 293v627h148v-615q0 -203 156 -203q79 0 153.5 38.5t157.5 115.5v664h145v-920h-131v125q-106 -80 -180 -115t-178 -35q-131 0 -201 74t-70 244zM383 1284l139 70l195 -267l-101 -47z" />
<glyph unicode="&#xfa;" horiz-adv-x="1146" d="M188 293v627h148v-615q0 -203 156 -203q79 0 153.5 38.5t157.5 115.5v664h145v-920h-131v125q-106 -80 -180 -115t-178 -35q-131 0 -201 74t-70 244zM451 1079l188 277l123 -68l-221 -252z" />
<glyph unicode="&#xfb;" horiz-adv-x="1146" d="M188 293v627h148v-615q0 -203 156 -203q79 0 153.5 38.5t157.5 115.5v664h145v-920h-131v125q-106 -80 -180 -115t-178 -35q-131 0 -201 74t-70 244zM305 1092l275 217l278 -207l-67 -68l-211 137l-201 -137z" />
<glyph unicode="&#xfc;" horiz-adv-x="1146" d="M188 293v627h148v-615q0 -203 156 -203q79 0 153.5 38.5t157.5 115.5v664h145v-920h-131v125q-106 -80 -180 -115t-178 -35q-131 0 -201 74t-70 244zM274 1198q0 41 29.5 68.5t73.5 27.5q40 0 69 -27.5t29 -68.5t-29 -67.5t-69 -26.5q-44 0 -73.5 26.5t-29.5 67.5z M686 1198q0 41 28 68.5t68 27.5q44 0 74.5 -27.5t30.5 -68.5t-30 -67.5t-75 -26.5q-39 0 -67.5 27t-28.5 67z" />
<glyph unicode="&#xfd;" horiz-adv-x="880" d="M0 -317q148 5 234 61t137 197l28 82l-393 897h160l303 -732l252 732h149l-362 -998q-68 -185 -181 -270t-304 -88zM354 1079l189 277l123 -68l-222 -252z" />
<glyph unicode="&#xfe;" horiz-adv-x="1075" d="M190 -465v1851h146v-497q56 29 102 42t105 13q84 0 152.5 -25.5t115.5 -69.5t79.5 -105t47 -129.5t14.5 -145.5q0 -68 -13.5 -135t-45.5 -132.5t-79 -115t-120 -80.5t-162 -31q-91 0 -196 37v-477h-146zM336 145q85 -49 194 -49q75 0 130 37.5t83 96t41 116.5t13 113 q0 73 -14.5 135.5t-45.5 115t-86 83t-129 30.5q-99 0 -186 -65v-613z" />
<glyph unicode="&#xff;" horiz-adv-x="880" d="M0 -317q148 5 234 61t137 197l28 82l-393 897h160l303 -732l252 732h149l-362 -998q-68 -185 -181 -270t-304 -88zM160 1198q0 41 29 68.5t73 27.5q40 0 69 -27.5t29 -68.5t-29 -67.5t-69 -26.5q-44 0 -73 26.5t-29 67.5zM571 1198q0 41 28.5 68.5t68.5 27.5 q44 0 74 -27.5t30 -68.5t-29.5 -67.5t-74.5 -26.5q-39 0 -68 27t-29 67z" />
<glyph unicode="&#x152;" horiz-adv-x="1826" d="M135 631q0 54 7 109t25.5 120t47.5 123t77 113t109.5 94.5t150 63.5t193.5 24q45 0 138.5 -8t144.5 -8h655v-121h-596v-410h510v-121h-510v-489h639v-121h-684q-42 0 -141.5 -8t-152.5 -8q-106 0 -195.5 25.5t-151 67t-110 98t-77.5 115.5t-47.5 123.5t-25 117 t-6.5 100.5zM289 631q0 -40 4 -81t16.5 -95t32 -101t55 -94t81.5 -80.5t115 -54.5t152 -21q58 0 197 17v1018q-91 16 -197 16q-91 0 -165.5 -26.5t-122.5 -71.5t-82.5 -99t-52.5 -115.5t-25.5 -112.5t-7.5 -99z" />
<glyph unicode="&#x153;" horiz-adv-x="1527" d="M109 465q0 54 8.5 111t35.5 125.5t68.5 120t115.5 87t169 35.5q213 0 297 -201q43 97 116.5 149t170.5 52q87 0 152.5 -32.5t104 -89.5t57 -128.5t17.5 -156.5q0 -35 -6 -84h-549q15 -363 252 -363q109 0 244 80l41 -113q-75 -43 -143 -62.5t-156 -19.5q-223 0 -301 211 q-87 -211 -303 -211q-79 0 -142.5 23.5t-105 64.5t-71 90t-44.5 106.5t-21.5 107t-6.5 98.5zM262 471q0 -44 4.5 -87t20 -97.5t40 -94.5t70.5 -68t107 -28q44 0 80 14.5t59 36t40 55t25.5 64t13.5 70.5t6 66.5t1 60.5q0 33 -1 57t-5.5 64t-13 69.5t-25.5 63.5t-40.5 55.5 t-59.5 36t-82 14.5q-60 0 -105.5 -26t-70.5 -63t-40 -88t-19.5 -92t-4.5 -83zM866 553h416q3 129 -46.5 206t-154.5 77q-65 0 -112 -40t-71.5 -101.5t-31.5 -141.5z" />
<glyph unicode="&#x178;" horiz-adv-x="940" d="M-31 1262h164l342 -705l342 705h154l-428 -848v-414h-146v410zM176 1532q0 41 29.5 68.5t73.5 27.5q40 0 69 -27.5t29 -68.5t-29 -67.5t-69 -26.5q-44 0 -73.5 26.5t-29.5 67.5zM588 1532q0 41 28 68.5t68 27.5q44 0 74 -27.5t30 -68.5t-29.5 -67.5t-74.5 -26.5 q-39 0 -67.5 27t-28.5 67z" />
<glyph unicode="&#x2c6;" horiz-adv-x="528" d="M-2 1092l274 217l279 -207l-68 -68l-211 137l-200 -137z" />
<glyph unicode="&#x2dc;" horiz-adv-x="716" d="M35 1135q94 88 190 88q56 0 118 -24.5t99 -24.5q58 0 127 51l58 -64q-80 -92 -187 -92q-58 0 -119.5 25.5t-97.5 25.5q-24 0 -48 -8.5t-39 -17.5t-44 -29z" />
<glyph unicode="&#x2000;" horiz-adv-x="845" />
<glyph unicode="&#x2001;" horiz-adv-x="1690" />
<glyph unicode="&#x2002;" horiz-adv-x="845" />
<glyph unicode="&#x2003;" horiz-adv-x="1690" />
<glyph unicode="&#x2004;" horiz-adv-x="563" />
<glyph unicode="&#x2005;" horiz-adv-x="422" />
<glyph unicode="&#x2006;" horiz-adv-x="281" />
<glyph unicode="&#x2007;" horiz-adv-x="281" />
<glyph unicode="&#x2008;" horiz-adv-x="211" />
<glyph unicode="&#x2009;" horiz-adv-x="338" />
<glyph unicode="&#x200a;" horiz-adv-x="93" />
<glyph unicode="&#x2010;" horiz-adv-x="813" d="M133 496v122h541v-122h-541z" />
<glyph unicode="&#x2011;" horiz-adv-x="813" d="M133 496v122h541v-122h-541z" />
<glyph unicode="&#x2012;" horiz-adv-x="813" d="M133 496v122h541v-122h-541z" />
<glyph unicode="&#x2013;" horiz-adv-x="1218" d="M133 496v122h946v-122h-946z" />
<glyph unicode="&#x2014;" horiz-adv-x="1816" d="M133 496v122h1544v-122h-1544z" />
<glyph unicode="&#x2018;" horiz-adv-x="358" d="M53 1149q0 154 164 315l86 -82q-94 -98 -94 -180q0 -34 24.5 -69t24.5 -68q0 -35 -24 -57.5t-64 -22.5q-51 0 -84 45.5t-33 118.5z" />
<glyph unicode="&#x2019;" horiz-adv-x="358" d="M55 1024q95 100 95 180q0 34 -25 69t-25 68q0 35 24 57.5t64 22.5q51 0 84 -45.5t33 -118.5q0 -154 -164 -315z" />
<glyph unicode="&#x201a;" horiz-adv-x="448" d="M94 -201q94 98 94 181q0 34 -24.5 69t-24.5 68q0 35 24 57.5t64 22.5q51 0 84 -45.5t33 -118.5q0 -155 -164 -316z" />
<glyph unicode="&#x201c;" horiz-adv-x="696" d="M53 1149q0 154 164 315l86 -82q-94 -98 -94 -180q0 -34 24.5 -69t24.5 -68q0 -35 -24 -57.5t-64 -22.5q-51 0 -84 45.5t-33 118.5zM391 1149q0 154 164 315l86 -82q-94 -98 -94 -180q0 -34 24.5 -69t24.5 -68q0 -35 -24 -57.5t-64 -22.5q-51 0 -84 45.5t-33 118.5z" />
<glyph unicode="&#x201d;" horiz-adv-x="696" d="M55 1024q95 100 95 180q0 34 -25 69t-25 68q0 35 24 57.5t64 22.5q51 0 84 -45.5t33 -118.5q0 -154 -164 -315zM393 1024q94 98 94 180q0 34 -24.5 69t-24.5 68q0 35 24 57.5t64 22.5q51 0 84 -45.5t33 -118.5q0 -154 -164 -315z" />
<glyph unicode="&#x201e;" horiz-adv-x="786" d="M94 -199q94 98 94 181q0 34 -24.5 69t-24.5 68q0 35 24 57.5t64 22.5q51 0 84 -45.5t33 -118.5q0 -155 -164 -316zM432 -199q94 98 94 181q0 34 -24.5 69t-24.5 68q0 35 24 57.5t64 22.5q51 0 84 -45.5t33 -118.5q0 -155 -164 -316z" />
<glyph unicode="&#x2022;" horiz-adv-x="665" d="M63 584q0 107 78 181.5t187 74.5q110 0 187 -74.5t77 -181.5q0 -104 -77 -178t-187 -74q-109 0 -187 74t-78 178z" />
<glyph unicode="&#x2026;" horiz-adv-x="1206" d="M131 78q0 42 31.5 71t73.5 29q44 0 73 -28.5t29 -71.5q0 -44 -29.5 -73.5t-72.5 -29.5q-44 0 -74.5 29.5t-30.5 73.5zM506 78q0 42 31 71t73 29q44 0 73.5 -28.5t29.5 -71.5q0 -44 -30 -73.5t-73 -29.5q-44 0 -74 29.5t-30 73.5zM883 78q0 42 31 71t73 29 q44 0 73.5 -28.5t29.5 -71.5q0 -44 -30 -73.5t-73 -29.5q-44 0 -74 29.5t-30 73.5z" />
<glyph unicode="&#x202f;" horiz-adv-x="338" />
<glyph unicode="&#x2039;" horiz-adv-x="657" d="M115 465l315 385l115 -47l-244 -340l244 -334l-113 -51z" />
<glyph unicode="&#x203a;" horiz-adv-x="659" d="M115 127l247 338l-247 336l112 49l318 -385l-318 -385z" />
<glyph unicode="&#x205f;" horiz-adv-x="422" />
<glyph unicode="&#x20ac;" horiz-adv-x="1052" d="M86 465v110h129q-2 25 -2 78q0 43 2 66h-129v110h143q17 94 53.5 174.5t92 144t136 100t177.5 36.5q87 0 145 -17t134 -57l-37 -125q-61 42 -115.5 59t-124.5 17q-117 0 -196 -89.5t-109 -242.5h428v-110h-440q-2 -20 -2 -62q0 -15 1 -42t1 -40h440v-110h-430 q26 -172 102.5 -270.5t208.5 -98.5q70 0 127 19t127 61l35 -121q-65 -42 -133 -62t-162 -20q-105 0 -187.5 35t-138.5 101.5t-90 154.5t-49 201h-137z" />
<glyph unicode="&#x2122;" horiz-adv-x="1476" d="M20 1292v94h578v-94h-229v-608h-113v608h-236zM606 684l49 702h115l229 -534l230 534h112l48 -702h-113l-33 512l-215 -512h-63l-220 510l-32 -510h-107z" />
<glyph unicode="&#xe000;" horiz-adv-x="921" d="M0 0v922h922v-922h-922z" />
<glyph unicode="&#xfb03;" horiz-adv-x="1642" d="M55 811v109h140v67q0 188 90 273.5t260 85.5q144 0 280 -43q83 100 258 100q157 0 324 -72l-39 -106q-141 65 -276 65q-110 0 -155.5 -71t-45.5 -218v-81h551v-920h-146v811h-405v-811h-146v811h-405v-811h-145v811h-140zM340 920h405v84q0 121 29 204q-110 29 -211 29 q-113 0 -168 -62t-55 -192v-63z" />
<glyph unicode="&#xfb04;" horiz-adv-x="1638" d="M57 811v109h138v67q0 188 90 273.5t260 85.5q143 0 270 -41q77 96 248 96q110 0 197.5 -24.5t181.5 -67.5v-1309h-146v1249q-111 39 -215 39q-109 0 -149.5 -56t-40.5 -171v-141h227v-109h-227v-811h-146v811h-405v-811h-145v811h-138zM340 920h405v143q0 76 19 147 q-111 27 -201 27q-113 0 -168 -62t-55 -192v-63z" />
</font>
</defs>
</svg>
